<?xml version="1.0" encoding="UTF-8"?>
<!DOCTYPE svg PUBLIC "-//W3C//DTD SVG 1.1//EN" "http://www.w3.org/Graphics/SVG/1.1/DTD/svg11.dtd">
<!-- Creator: CorelDRAW 2021 (64-Bit Evaluation Version) -->
<svg xmlns="http://www.w3.org/2000/svg" xml:space="preserve" width="3cm" height="3.06064cm" version="1.1" style="shape-rendering:geometricPrecision; text-rendering:geometricPrecision; image-rendering:optimizeQuality; fill-rule:evenodd; clip-rule:evenodd"
viewBox="0 0 2105.29 2147.85"
 xmlns:xlink="http://www.w3.org/1999/xlink"
 xmlns:xodm="http://www.corel.com/coreldraw/odm/2003">
 <defs>
  <style type="text/css">
   <![CDATA[
    .fil1 {fill:#434242}
    .fil0 {fill:#FFD540}
   ]]>
  </style>
 </defs>
 <g id="Layer_x0020_1">
  <metadata id="CorelCorpID_0Corel-Layer"/>
  <path class="fil0" d="M2045.65 1035.85c17.95,32.16 13.81,78.76 -13.39,103.41 -57.41,52.05 -111.94,24.35 -172.75,-19.8 4.58,50.64 7.99,91.94 12.11,133.17 7.34,73.49 0.74,143.74 -46.51,204.7 -62.09,80.13 -184.41,80.82 -230.45,-0.41 -33.84,-59.68 -5.23,-125.02 47.44,-162.12 4.51,-3.18 16.83,-2.58 19.6,0.94 3.33,4.24 1.49,13.72 -0.07,20.5 -4.81,20.89 -14.28,41.44 -15.11,62.39 -1.71,43.14 29.07,68.12 72.03,62.63 57.43,-7.32 117.65,-66.27 123.82,-127.04 10.17,-100.2 -20.94,-193.61 -53.48,-286.29 -1.63,-4.63 -6.3,-11.13 -10.15,-11.56 -35.74,-3.99 -30.53,-23.99 -23.08,-49.32 3.45,-11.81 -1.17,-27.49 -5.94,-39.97 -36.83,-96.94 -67.6,-194.94 -71.42,-299.96 -4.07,-112.41 38.5,-202.68 123.3,-274.66 65.24,-55.37 186.13,-47.25 247.12,-8.88 66.27,41.7 71.84,162.92 11.55,212.65 -27.7,22.86 -75.61,27.33 -100.7,9.42 -22.64,-16.13 -31.8,-50.81 -20.06,-83.02 2.63,-7.25 11.64,-12.19 17.7,-18.18 5.34,7.31 11.06,14.4 15.78,22.09 1.45,2.35 -0.97,6.94 0.31,9.57 7.41,15.27 14.53,42.21 23.35,42.83 17.61,1.26 42,-6.96 53.43,-20.1 40.66,-46.75 19.74,-125.39 -36.34,-152.06 -84,-39.95 -192.2,-13.56 -241.97,71.62 -46.48,79.56 -63.69,165.77 -50.05,254.36 11.83,76.69 37.14,151.41 58.66,226.37 2.85,9.9 17.5,20.13 28.61,23.19 24.6,6.76 32.59,17.52 22.79,42.45 -3.52,8.97 -0.1,21.13 1.76,31.55 0.88,4.95 5.49,9.25 8.49,13.79 58.87,89.43 121.4,93.7 193.85,13.29 2.12,-2.37 5.08,-3.98 9.77,-7.56z"/>
  <path class="fil0" d="M1023.52 251.28c-42.29,-55.42 -66.22,-108.06 -21.99,-165.49 23.58,-30.63 70.35,-37.07 117.82,-18.4 -7.99,7.6 -14.26,14.01 -20.99,19.91 -33.54,29.44 -58.4,63.28 -47.24,110.88 11.06,47.21 51.25,68.16 88.65,90.37 4.44,2.63 13.65,-1.61 20.2,-3.92 24.03,-8.47 36.5,-0.68 42.08,24.6 2.3,10.48 10.82,23.71 20.05,27.89 98.1,44.44 200.02,73.85 309.14,69.42 73.34,-2.98 141.89,-21.44 200.8,-67.47 69.61,-54.4 88.49,-164.73 41.37,-238.99 -28.43,-44.81 -105.13,-58.4 -144.18,-21.94 -12.9,12.04 -21.3,36.21 -19.6,53.66 0.91,9.22 27.78,16.22 43.2,23.62 11.06,5.29 22.61,9.57 38.22,16.1 -40.08,27.43 -84.67,24.34 -106.9,-1.92 -23.2,-27.4 -17.7,-76.71 11.87,-107.46 56.13,-58.34 194.29,-43.8 222.07,49.1 36.04,120.59 0.09,219.73 -107.09,285.25 -101.09,61.79 -207.43,58.15 -315.32,30.35 -62.95,-16.21 -123.63,-41.01 -185.82,-60.42 -13.11,-4.09 -28.57,-3.4 -42.47,-1.48 -18.89,2.6 -34.37,4.46 -40.27,-19.87 -1.85,-7.63 -10.02,-16.78 -17.4,-19.52 -83.76,-31.01 -167.99,-60.13 -259.32,-58.06 -68.3,1.54 -123.57,41.03 -146.01,105.31 -8.48,24.27 -9.01,47.52 8.74,67.54 18.95,21.36 43.88,28.06 71.29,21.51 19.66,-4.7 38.71,-12.01 64.25,-20.13 -1.9,13.29 -0.77,22.22 -4.44,28.22 -25.18,41.16 -90.37,67.25 -133.96,54.66 -53.02,-15.31 -79.75,-56.77 -84,-114.32 -7.16,-96.72 84.39,-172.9 185.67,-173.17 60.62,-0.16 121.26,9.2 181.91,14.11 7.21,0.58 14.51,0.07 29.7,0.07z"/>
  <path class="fil0" d="M13.55 37.86c10.69,8.56 23.07,15.67 31.79,25.91 33.8,39.67 78.46,55.24 127.92,54.16 96.79,-2.1 193.49,-8.7 290.29,-11.21 154.86,-4.02 306.53,11.45 447.87,82.09 9.26,4.63 18.18,9.94 25.62,19.95 -44.74,-5.72 -89.55,-16.45 -134.2,-15.76 -46.79,0.71 -94.96,7.32 -139.7,20.73 -42.23,12.65 -65.9,50.85 -81.44,93.3 -58.59,-20.77 -31.52,-72.72 -42.55,-110.29 -47.84,7.64 -93.57,17 -139.77,21.93 -103.76,11.06 -205.05,3.18 -295.44,-55.52 -28.89,-18.77 -55.51,-42.14 -79.44,-67 -12.37,-12.87 -16.6,-33.59 -24.51,-50.77 4.52,-2.51 9.04,-5.02 13.55,-7.52z"/>
  <path class="fil0" d="M2039.73 2147.85c-14.25,-8.21 -30.74,-14.02 -42.35,-24.98 -76.47,-72.14 -120.09,-161.64 -119.31,-266.45 0.55,-72.21 14.62,-144.32 22.67,-216.46 1.17,-10.55 2.61,-21.06 4.07,-32.94 -24.1,-1.47 -45.92,-0.11 -66.23,-5.06 -12.61,-3.08 -27.69,-13.38 -33.2,-24.59 -9.19,-18.68 8.91,-23.14 22.7,-30.7 60.44,-33.16 86.93,-88.73 86.42,-154.29 -0.46,-60.63 -9.95,-121.18 -15.45,-181.77 -0.46,-5.08 -0.84,-10.14 4.09,-17.52 5.61,9.76 11.92,19.19 16.7,29.35 47.92,101.93 74.65,209.63 73.2,321.91 -1.45,112.93 -11.56,225.73 -15.89,338.66 -1.8,46.54 -2.92,93.99 4.3,139.65 4.29,27.06 24.71,51.87 39.31,76.85 7.85,13.41 18.75,25.04 28.28,37.48 -3.11,3.61 -6.21,7.23 -9.31,10.86z"/>
  <path class="fil0" d="M1989.17 646.61c39.79,24.89 54.17,68.01 41.17,116.25 -23.41,86.93 -121.9,119.7 -189.19,61.08 -52.24,-45.53 -81.27,-104.25 -82.7,-174.53 -1.08,-53.19 -3.55,-106.48 20.03,-156.99 37.73,-80.88 111.42,-122.05 183.05,-97.98 18.89,6.34 36.07,19.57 51.84,32.32 5.41,4.36 4.17,16.95 5.97,25.79 -8.76,-0.27 -19.36,2.61 -25.98,-1.29 -77.05,-45.19 -133.84,-25.05 -162.75,60.02 -23.5,69.13 -16.77,132.83 38.16,186.46 32.75,31.98 58.64,31.38 87.91,-4.2 11.59,-14.08 20.91,-30.03 32.49,-46.92z"/>
  <path class="fil0" d="M1514.3 127.83c-27.09,18.24 -44.47,28.8 -60.57,41.02 -33.35,25.32 -35.93,51.77 -9.25,82.77 60.09,69.82 182.61,75.69 249.54,11.98 34.81,-33.14 39.29,-74.19 12.47,-114.74 -2.99,-4.54 -7.98,-8.45 -9.17,-13.35 -2.08,-8.59 -1.91,-17.72 -2.7,-26.63 9.53,2.57 21.74,2.26 28.15,8.2 40.03,37.13 45.45,109.25 13.01,159.63 -33.57,52.14 -84.71,77.5 -143.32,87.07 -97.94,15.99 -188.67,1.04 -262.39,-72.44 -37.64,-37.52 -49.8,-98.64 -28.04,-137.84 26.75,-48.21 86.26,-79.33 137.29,-65.99 24.18,6.32 45.42,23.94 75,40.32z"/>
  <path class="fil0" d="M1446.25 476.1c9.13,4.59 16.1,7.36 22.29,11.33 54.71,35.11 106.89,29.65 157.29,-9.16 6.84,-5.26 13.81,-11.87 21.72,-13.82 8.27,-2.04 21.48,-2.45 25.66,2.37 4.24,4.9 3.73,20.32 -0.95,25.55 -49.43,55.3 -56.74,115.14 -24.28,181.29 2.72,5.55 -2.22,14.84 -3.6,22.41 -8,-1.68 -18.92,-0.63 -23.47,-5.52 -14.63,-15.79 -26.9,-33.76 -42.57,-54.09 -11.3,10.41 -21.86,20.59 -32.92,30.16 -11.52,9.98 -22.78,20.56 -35.53,28.76 -23.06,14.84 -47.66,29.84 -75.24,11.8 -15.96,-10.44 -15.61,-56.74 2.28,-82.15 14.68,-20.84 34.31,-38.21 52.92,-58.37 -24.37,-23.8 -68.49,-39.59 -43.61,-90.57z"/>
  <path class="fil0" d="M2047.56 281.73c-73.57,-33.39 -139.67,0.84 -215.3,24.19 5.73,-21.98 6.66,-36.11 12.84,-47.38 26.48,-48.45 33.4,-97.62 12.51,-149.98 -3.1,-7.81 -0.17,-18.01 -0.04,-27.11 9.33,0.84 18.95,0.54 27.85,2.9 7.11,1.88 16.03,5.34 19.54,10.97 22.26,35.69 42.44,19.08 69.6,3.83 24.69,-13.87 56.14,-15.7 84.62,-22.82 -5.51,26.41 -10.8,52.87 -16.72,79.19 -1.15,5.14 -3.99,10.36 -7.37,14.43 -21.46,25.74 -28.61,49 5.5,71.56 7.64,5.06 8.92,19.78 13.12,30.06 -2.05,3.38 -4.1,6.78 -6.15,10.17z"/>
  <path class="fil1" d="M2048.77 1008.4c17.95,32.16 13.81,78.76 -13.39,103.41 -57.42,52.05 -111.93,24.35 -172.75,-19.8 4.59,50.64 8,91.94 12.11,133.17 7.34,73.49 0.74,143.74 -46.5,204.7 -62.1,80.13 -184.41,80.82 -230.45,-0.41 -33.84,-59.68 -5.23,-125.02 47.44,-162.13 4.51,-3.18 16.83,-2.57 19.6,0.94 3.34,4.24 1.5,13.72 -0.07,20.5 -4.81,20.89 -14.29,41.44 -15.11,62.38 -1.7,43.14 29.07,68.12 72.03,62.63 57.44,-7.32 117.65,-66.27 123.82,-127.04 10.17,-100.2 -20.94,-193.61 -53.48,-286.29 -1.62,-4.63 -6.3,-11.13 -10.14,-11.56 -35.74,-3.99 -30.53,-23.99 -23.09,-49.32 3.45,-11.81 -1.17,-27.49 -5.93,-39.97 -36.83,-96.94 -67.61,-194.94 -71.42,-299.96 -4.07,-112.41 38.49,-202.68 123.3,-274.66 65.23,-55.37 186.12,-47.25 247.12,-8.88 66.27,41.7 71.83,162.92 11.55,212.65 -27.7,22.85 -75.61,27.33 -100.71,9.42 -22.63,-16.13 -31.79,-50.81 -20.06,-83.02 2.64,-7.24 11.65,-12.19 17.71,-18.18 5.33,7.31 11.06,14.4 15.78,22.09 1.45,2.35 -0.97,6.94 0.31,9.57 7.4,15.27 14.53,42.21 23.35,42.84 17.61,1.25 42,-6.97 53.43,-20.11 40.67,-46.75 19.74,-125.38 -36.34,-152.05 -84,-39.95 -192.2,-13.57 -241.97,71.62 -46.47,79.56 -63.68,165.77 -50.05,254.36 11.83,76.69 37.14,151.41 58.66,226.37 2.84,9.9 17.49,20.13 28.6,23.19 24.6,6.76 32.6,17.52 22.8,42.45 -3.52,8.97 -0.1,21.13 1.75,31.55 0.88,4.95 5.5,9.25 8.49,13.8 58.87,89.43 121.4,93.7 193.86,13.29 2.13,-2.37 5.08,-3.98 9.77,-7.56z"/>
  <path class="fil1" d="M1026.64 223.83c-42.28,-55.42 -66.22,-108.05 -21.99,-165.49 23.58,-30.63 70.34,-37.07 117.81,-18.4 -7.98,7.6 -14.26,14.01 -20.98,19.91 -33.54,29.44 -58.4,63.28 -47.24,110.88 11.06,47.21 51.24,68.16 88.65,90.37 4.43,2.64 13.65,-1.61 20.2,-3.92 24.04,-8.47 36.51,-0.68 42.08,24.6 2.31,10.48 10.83,23.71 20.05,27.89 98.11,44.44 200.02,73.86 309.14,69.42 73.33,-2.98 141.89,-21.44 200.79,-67.47 69.62,-54.4 88.5,-164.73 41.38,-238.99 -28.43,-44.81 -105.13,-58.4 -144.18,-21.94 -12.9,12.04 -21.3,36.21 -19.6,53.66 0.9,9.22 27.77,16.22 43.19,23.62 11.06,5.29 22.62,9.57 38.23,16.1 -40.08,27.43 -84.68,24.34 -106.9,-1.92 -23.19,-27.4 -17.71,-76.71 11.87,-107.46 56.13,-58.34 194.3,-43.8 222.07,49.1 36.05,120.6 0.09,219.74 -107.08,285.25 -101.09,61.79 -207.43,58.15 -315.33,30.35 -62.95,-16.21 -123.63,-41.01 -185.82,-60.42 -13.1,-4.09 -28.57,-3.4 -42.47,-1.48 -18.89,2.6 -34.37,4.46 -40.27,-19.88 -1.85,-7.63 -10.01,-16.78 -17.39,-19.52 -83.76,-31.01 -167.99,-60.13 -259.33,-58.06 -68.29,1.54 -123.56,41.03 -146,105.31 -8.48,24.27 -9.02,47.52 8.74,67.54 18.95,21.36 43.87,28.06 71.28,21.51 19.67,-4.7 38.71,-12.01 64.26,-20.13 -1.91,13.29 -0.77,22.22 -4.44,28.22 -25.18,41.17 -90.38,67.25 -133.97,54.66 -53.02,-15.32 -79.75,-56.76 -84,-114.32 -7.16,-96.72 84.4,-172.9 185.67,-173.17 60.63,-0.16 121.26,9.2 181.91,14.11 7.21,0.58 14.52,0.07 29.69,0.07z"/>
  <path class="fil1" d="M16.66 10.41c10.7,8.56 23.08,15.67 31.79,25.91 33.81,39.67 78.47,55.24 127.92,54.16 96.79,-2.1 193.49,-8.7 290.29,-11.21 154.86,-4.02 306.54,11.45 447.87,82.09 9.26,4.63 18.18,9.94 25.62,19.95 -44.74,-5.72 -89.55,-16.45 -134.2,-15.76 -46.8,0.71 -94.95,7.32 -139.71,20.73 -42.23,12.65 -65.9,50.85 -81.43,93.3 -58.6,-20.77 -31.52,-72.72 -42.55,-110.28 -47.84,7.64 -93.57,17 -139.77,21.92 -103.77,11.06 -205.05,3.18 -295.44,-55.52 -28.89,-18.77 -55.51,-42.14 -79.44,-67 -12.38,-12.87 -16.6,-33.59 -24.51,-50.77 4.52,-2.51 9.04,-5.01 13.55,-7.52z"/>
  <path class="fil1" d="M2042.84 2120.4c-14.24,-8.2 -30.74,-14.02 -42.35,-24.98 -76.47,-72.14 -120.09,-161.64 -119.31,-266.45 0.55,-72.21 14.61,-144.32 22.67,-216.46 1.18,-10.55 2.61,-21.06 4.07,-32.94 -24.1,-1.47 -45.93,-0.11 -66.23,-5.06 -12.62,-3.08 -27.7,-13.38 -33.21,-24.59 -9.18,-18.68 8.92,-23.14 22.7,-30.7 60.45,-33.16 86.93,-88.73 86.43,-154.29 -0.46,-60.63 -9.96,-121.18 -15.45,-181.77 -0.46,-5.08 -0.84,-10.14 4.08,-17.52 5.61,9.76 11.93,19.19 16.7,29.35 47.93,101.93 74.66,209.63 73.2,321.91 -1.44,112.94 -11.56,225.73 -15.89,338.67 -1.79,46.54 -2.91,93.99 4.3,139.65 4.28,27.06 24.71,51.88 39.31,76.85 7.85,13.41 18.75,25.04 28.28,37.48 -3.11,3.61 -6.21,7.23 -9.31,10.85z"/>
  <path class="fil1" d="M1992.29 619.16c39.79,24.89 54.17,68.01 41.16,116.25 -23.41,86.93 -121.89,119.7 -189.18,61.08 -52.24,-45.54 -81.28,-104.25 -82.7,-174.54 -1.08,-53.19 -3.54,-106.48 20.03,-156.99 37.74,-80.87 111.42,-122.05 183.05,-97.98 18.89,6.34 36.07,19.57 51.85,32.32 5.4,4.36 4.17,16.95 5.96,25.79 -8.76,-0.27 -19.35,2.6 -25.98,-1.29 -77.04,-45.19 -133.84,-25.06 -162.74,60.02 -23.5,69.13 -16.77,132.83 38.15,186.46 32.76,31.98 58.64,31.38 87.92,-4.2 11.59,-14.08 20.9,-30.03 32.49,-46.92z"/>
  <path class="fil1" d="M1517.41 100.38c-27.09,18.24 -44.46,28.8 -60.57,41.02 -33.35,25.31 -35.94,51.77 -9.26,82.77 60.09,69.82 182.61,75.7 249.54,11.98 34.81,-33.14 39.29,-74.19 12.47,-114.74 -2.99,-4.54 -7.97,-8.45 -9.16,-13.35 -2.08,-8.59 -1.92,-17.72 -2.71,-26.63 9.54,2.57 21.75,2.26 28.15,8.2 40.02,37.13 45.45,109.24 13,159.63 -33.56,52.14 -84.7,77.5 -143.31,87.06 -97.94,15.99 -188.67,1.04 -262.4,-72.44 -37.64,-37.52 -49.8,-98.64 -28.03,-137.84 26.74,-48.21 86.26,-79.33 137.29,-65.99 24.18,6.32 45.42,23.94 74.99,40.32z"/>
  <path class="fil1" d="M1449.37 448.65c9.13,4.59 16.09,7.36 22.28,11.33 54.71,35.11 106.89,29.65 157.3,-9.16 6.84,-5.26 13.81,-11.86 21.72,-13.82 8.26,-2.04 21.48,-2.45 25.65,2.37 4.24,4.9 3.73,20.32 -0.94,25.55 -49.44,55.3 -56.74,115.14 -24.28,181.29 2.71,5.55 -2.22,14.84 -3.6,22.4 -8,-1.68 -18.92,-0.63 -23.47,-5.52 -14.63,-15.79 -26.9,-33.76 -42.57,-54.09 -11.31,10.4 -21.86,20.58 -32.92,30.16 -11.53,9.98 -22.79,20.56 -35.53,28.76 -23.06,14.84 -47.67,29.84 -75.24,11.8 -15.97,-10.44 -15.62,-56.74 2.27,-82.15 14.69,-20.84 34.32,-38.21 52.93,-58.37 -24.37,-23.8 -68.49,-39.59 -43.61,-90.57z"/>
  <path class="fil1" d="M2050.67 254.28c-73.56,-33.39 -139.67,0.84 -215.29,24.19 5.72,-21.98 6.66,-36.11 12.83,-47.38 26.48,-48.45 33.4,-97.62 12.52,-149.98 -3.11,-7.81 -0.17,-18.01 -0.04,-27.11 9.33,0.85 18.94,0.54 27.85,2.9 7.1,1.88 16.02,5.34 19.54,10.97 22.26,35.69 42.44,19.08 69.6,3.83 24.69,-13.87 56.14,-15.7 84.62,-22.82 -5.5,26.41 -10.79,52.87 -16.72,79.19 -1.16,5.14 -4,10.36 -7.38,14.43 -21.45,25.74 -28.61,49 5.5,71.56 7.65,5.06 8.92,19.78 13.12,30.06 -2.06,3.38 -4.1,6.78 -6.15,10.17z"/>
 </g>
</svg>
