<?xml version="1.0" encoding="UTF-8"?>
<!DOCTYPE svg PUBLIC "-//W3C//DTD SVG 1.1//EN" "http://www.w3.org/Graphics/SVG/1.1/DTD/svg11.dtd">
<!-- Creator: CorelDRAW 2021 (64-Bit Evaluation Version) -->
<svg xmlns="http://www.w3.org/2000/svg" xml:space="preserve" width="21cm" height="29.7cm" version="1.1" style="shape-rendering:geometricPrecision; text-rendering:geometricPrecision; image-rendering:optimizeQuality; fill-rule:evenodd; clip-rule:evenodd"
viewBox="0 0 21000 29700"
 xmlns:xlink="http://www.w3.org/1999/xlink"
 xmlns:xodm="http://www.corel.com/coreldraw/odm/2003">
 <defs>
  <style type="text/css">
   <![CDATA[
    .fil1 {fill:#434242}
    .fil0 {fill:#FFD540}
   ]]>
  </style>
 </defs>
 <g id="Layer_x0020_1">
  <metadata id="CorelCorpID_0Corel-Layer"/>
  <path class="fil0" d="M8383.21 8105.98c-25.39,-45.76 -19.64,-112.21 19.26,-147.26 81.68,-74.19 159.45,-34.63 246.04,28.24 -6.44,-72.25 -11.34,-131.05 -17.09,-189.79 -10.47,-104.76 -1.06,-204.78 66.27,-291.79 88.5,-114.12 262.68,-114.99 328.29,0.66 48.3,85.03 7.5,178.24 -67.56,231.04 -6.39,4.46 -24.09,3.61 -28.01,-1.3 -4.69,-6.2 -2.12,-19.68 0,-29.3 7.05,-29.73 20.56,-59 21.62,-88.92 2.55,-61.31 -41.49,-97.03 -102.62,-89.11 -81.87,10.28 -167.58,94.25 -176.57,181.02 -14.31,142.81 29.91,275.76 76.28,407.85 2.36,6.62 8.98,15.79 14.54,16.48 50.9,5.75 43.4,34.18 32.93,70.3 -4.95,16.9 1.49,39.13 8.3,57.1 52.57,138.09 96.42,277.63 101.74,427.25 5.75,160.32 -54.69,288.8 -175.69,391.37 -92.95,78.88 -265.23,67.37 -352.05,12.64 -94.44,-59.45 -102.38,-232.11 -16.43,-302.87 39.51,-32.7 107.71,-38.9 143.42,-13.44 32.27,23.05 45.28,72.47 28.62,118.17 -3.84,10.47 -16.67,17.52 -25.2,26.07 -7.68,-10.47 -15.84,-20.51 -22.47,-31.59 -2.12,-3.21 1.3,-9.83 -0.38,-13.48 -10.7,-21.81 -20.74,-60.25 -33.38,-61.13 -25.01,-1.72 -59.83,10.04 -76.1,28.62 -57.9,66.69 -28.19,178.71 51.77,216.74 119.71,56.86 273.78,19.26 344.74,-102.17 66.27,-113.27 90.85,-236.18 71.4,-362.28 -16.9,-109.43 -53.02,-215.89 -83.59,-322.77 -4.03,-14.12 -24.96,-28.62 -40.81,-32.89 -35.05,-9.64 -46.37,-25.01 -32.51,-60.51 5.14,-12.82 0.24,-30.15 -2.55,-45.07 -1.06,-7.05 -7.68,-13.06 -11.95,-19.68 -84.02,-127.39 -172.96,-133.38 -276.38,-18.84 -3.02,3.42 -7.05,5.56 -13.86,10.7l-0.05 0 0 0 0 -0.02 0.03 -0.04z"/>
  <path class="fil0" d="M9839.89 9224.07c60.07,78.88 94.25,153.89 31.21,235.76 -33.57,43.59 -100.26,52.83 -167.82,26.31 11.34,-10.89 20.32,-20.13 29.96,-28.43 47.62,-41.91 83.12,-90.22 67.33,-157.97 -15.84,-67.33 -73.13,-97.24 -126.33,-128.88 -6.44,-3.65 -19.45,2.36 -28.85,5.52 -34.18,12.19 -51.96,1.11 -60.07,-35.05 -3.21,-14.73 -15.42,-33.76 -28.43,-39.51 -139.77,-63.48 -285.12,-105.4 -440.54,-98.96 -104.53,4.27 -202.19,30.55 -286.18,96.18 -99.2,77.34 -126.14,234.7 -59,340.47 40.62,63.91 149.86,83.17 205.61,31.21 18.39,-17.09 30.39,-51.53 27.79,-76.54 -1.3,-13.01 -39.56,-23.05 -61.55,-33.52 -15.61,-7.5 -32.08,-13.67 -54.5,-22.91 57.28,-39.09 120.77,-34.82 152.4,2.59 33.12,39.09 25.2,109.43 -16.9,153.23 -79.94,83.17 -276.8,62.42 -316.57,-70.11 -51.27,-171.85 0,-312.92 152.64,-406.31 144.06,-88.07 295.59,-82.93 449.48,-43.4 89.6,23.29 176.12,58.58 264.61,86.14 18.84,5.75 40.85,4.95 60.51,2.17 26.94,-3.65 49.17,-6.44 57.52,28.43 2.55,10.66 14.31,23.72 24.78,27.75 119.26,44.04 239.41,85.71 369.56,82.72 97.24,-2.12 175.93,-58.58 207.97,-150.05 12.19,-34.63 12.82,-67.75 -12.38,-96.42 -27.13,-30.34 -62.61,-39.96 -101.51,-30.55 -28.05,6.62 -55.16,17.09 -91.7,28.62 2.78,-18.76 1.06,-31.59 6.39,-40.19 35.93,-58.53 128.69,-95.73 190.9,-77.79 75.44,21.81 113.7,80.81 119.71,162.87 10.23,137.86 -120.37,246.46 -264.61,246.65 -86.37,0.24 -172.72,-13.01 -259.29,-20.06 -10.28,-0.87 -20.56,0 -42.1,0l0 0 0 0 0 0.02 -0.04 0.01z"/>
  <path class="fil0" d="M11279.01 9528.24c-15.37,-12.19 -32.89,-22.47 -45.28,-36.96 -48.35,-56.67 -111.83,-78.69 -182.37,-77.16 -137.86,2.97 -275.69,12.38 -413.55,15.98 -220.81,5.56 -436.89,-16.43 -638.28,-117.11 -13.25,-6.62 -25.84,-14.12 -36.54,-28.43 63.72,8.11 127.63,23.53 191.3,22.42 66.69,-0.83 135.31,-10.47 199.03,-29.49 60.25,-17.96 93.82,-72.47 116.05,-132.96 83.54,29.73 44.88,103.68 60.7,157.09 68.17,-10.89 133.14,-24.16 198.96,-31.21 147.92,-15.79 292.22,-4.46 421.1,79.09 41.25,26.76 79.09,60.07 113.27,95.54 17.52,18.39 23.53,47.88 34.87,72.25 -6.44,3.65 -12.82,7.24 -19.26,10.89l0 0 0 0 0 0.02 0 0.04z"/>
  <path class="fil0" d="M8391.74 6521.53c20.32,11.72 43.82,19.87 60.3,35.67 109,102.62 171.17,230.17 170.13,379.61 -0.87,102.8 -20.93,205.61 -32.46,308.46 -1.53,14.92 -3.65,29.91 -5.8,47.01 34.42,1.91 65.44,0 94.51,7.05 17.96,4.46 39.32,19.02 47.24,35.05 13.01,26.71 -12.64,32.89 -32.27,43.8 -86.14,47.24 -123.97,126.33 -123.1,219.75 0.64,86.52 14.07,172.65 21.99,259.05 0.64,7.24 1.06,14.54 -5.99,25.01 -7.87,-13.93 -16.86,-27.37 -23.72,-41.91 -68.17,-145.1 -106.41,-298.61 -104.29,-458.7 2.17,-160.94 16.48,-321.66 22.65,-482.41 2.55,-66.45 4.03,-134.02 -6.2,-198.96 -5.99,-38.71 -35.05,-74 -55.99,-109.66 -11.13,-19.02 -26.76,-35.67 -40.19,-53.44 4.27,-5.14 8.75,-10.28 13.25,-15.37l-0.05 0 0 0 0 0 -0.01 -0.01z"/>
  <path class="fil0" d="M8463.83 8660.64c-56.67,-35.48 -77.16,-96.84 -58.82,-165.65 33.38,-123.78 173.81,-170.56 269.75,-87.01 74.42,64.97 115.68,148.56 117.77,248.82 1.49,75.67 5.14,151.72 -28.62,223.55 -53.68,115.42 -158.6,174.02 -260.77,139.77 -26.94,-9.17 -51.32,-28.01 -73.95,-46.13 -7.73,-6.2 -5.8,-24.16 -8.35,-36.77 12.38,0.42 27.56,-3.61 36.96,1.91 109.85,64.33 190.66,35.71 231.92,-85.45 33.57,-98.54 23.97,-189.37 -54.27,-265.91 -46.82,-45.52 -83.59,-44.65 -125.51,5.99 -16.43,20.06 -29.68,42.93 -46.13,66.88l0 0 0 0 0.02 0z"/>
  <path class="fil0" d="M9140.51 9399.98c38.5,-26.07 63.3,-41.04 86.37,-58.58 47.43,-35.93 51.08,-73.76 13.01,-117.77 -85.45,-99.57 -260.11,-107.94 -355.47,-17.09 -49.55,47.24 -55.99,105.59 -17.92,163.48 4.27,6.44 11.53,12 13.25,19.07 2.73,12.14 2.55,25.2 3.84,37.84 -13.67,-3.65 -31.02,-3.21 -40.19,-11.76 -57.1,-52.83 -64.78,-155.61 -18.58,-227.44 47.88,-74.14 120.77,-110.3 204.31,-123.97 139.58,-22.87 268.69,-1.49 373.85,103.28 53.63,53.44 70.96,140.4 39.96,196.44 -38.02,68.58 -122.87,113.04 -195.57,94.01 -34.63,-9.17 -64.78,-34.18 -106.88,-57.47l0 0 0 0 0 0 0.02 -0.04z"/>
  <path class="fil0" d="M9237.35 8903.66c-13.06,-6.62 -22.87,-10.47 -31.64,-16.22 -78.03,-50.02 -152.4,-42.1 -224.23,13.25 -9.59,7.5 -19.64,16.9 -30.98,19.64 -11.76,2.78 -30.6,3.47 -36.54,-3.42 -5.99,-7.05 -5.37,-29.04 1.49,-36.35 70.3,-78.83 80.76,-164.12 34.37,-258.37 -3.84,-7.92 3.21,-21.17 5.14,-31.87 11.57,2.36 27.18,0.87 33.57,7.68 20.93,22.65 38.26,48.11 60.7,77.16 16.03,-14.73 31.02,-29.23 46.82,-42.93 16.48,-14.36 32.51,-29.3 50.66,-41.04 32.93,-21.17 67.99,-42.53 107.31,-16.9 22.65,14.97 22.23,81 -3.42,117.16 -20.74,29.73 -48.73,54.5 -75.25,83.12 34.63,33.99 97.48,56.46 62,129.11l0 0 0 0 0 -0.02z"/>
  <path class="fil0" d="M8380.66 9180.65c104.74,47.48 198.96,-1.25 306.72,-34.63 -8.11,31.45 -9.59,51.53 -18.39,67.56 -37.6,69.05 -47.43,139.15 -17.73,213.77 4.46,11.08 0.19,25.65 0,38.66 -13.25,-1.25 -26.94,-0.83 -39.56,-4.03 -10.28,-2.78 -22.87,-7.68 -28.01,-15.61 -31.64,-50.9 -60.51,-27.37 -99.2,-5.56 -35.05,19.87 -79.94,22.42 -120.51,32.51 7.87,-37.65 15.37,-75.25 23.9,-112.87 1.49,-7.24 5.56,-14.73 10.47,-20.51 30.6,-36.77 40.62,-69.92 -7.87,-101.93 -10.89,-7.31 -12.64,-28.24 -18.62,-42.79 2.78,-4.9 5.8,-9.83 8.79,-14.5l0 -0.05 0 0 0 -0.02 0.01 0z"/>
  <path class="fil1" d="M8378.94 8145.11c-25.65,-45.76 -19.87,-112.21 19.07,-147.26 81.87,-74.19 159.45,-34.65 245.99,28.19 -6.39,-72.23 -11.29,-131.05 -17.09,-189.79 -10.47,-104.74 -1.06,-204.74 66.27,-291.75 88.5,-114.12 262.68,-114.99 328.33,0.64 48.3,85.08 7.5,178.29 -67.56,231.04 -6.39,4.5 -23.97,3.65 -28.01,-1.25 -4.69,-6.2 -2.17,-19.68 0.19,-29.3 6.86,-29.73 20.32,-59 21.43,-88.92 2.55,-61.36 -41.3,-97.03 -102.62,-89.11 -81.87,10.23 -167.58,94.25 -176.35,181.02 -14.5,142.81 29.73,275.76 76.1,407.85 2.36,6.62 8.98,15.79 14.54,16.43 50.85,5.75 43.35,34.18 32.89,70.34 -4.9,16.9 1.72,39.09 8.35,57.05 52.57,138.09 96.37,277.67 101.74,427.3 5.96,160.32 -54.74,288.78 -175.69,391.37 -92.76,78.88 -265.04,67.33 -352.05,12.64 -94.51,-59.45 -102.38,-232.15 -16.48,-302.87 39.56,-32.7 107.75,-38.9 143.42,-13.48 32.27,23.1 45.33,72.47 28.67,118.22 -3.65,10.47 -16.48,17.52 -25.27,26.07 -7.45,-10.47 -15.79,-20.51 -22.42,-31.64 -2.17,-3.21 1.3,-9.83 -0.42,-13.44 -10.47,-21.81 -20.74,-60.3 -33.33,-61.13 -25.01,-1.72 -59.88,10.04 -76.1,28.62 -57.9,66.69 -28.24,178.71 51.72,216.74 119.71,56.86 274.02,19.26 344.79,-102.17 66.27,-113.27 90.85,-236.18 71.4,-362.28 -16.9,-109.48 -52.83,-215.89 -83.59,-322.77 -4.08,-14.12 -25.01,-28.67 -40.81,-32.93 -35.05,-9.59 -46.37,-24.96 -32.51,-60.51 5.14,-12.82 0.19,-30.1 -2.36,-45.07 -1.3,-7.05 -7.92,-13.01 -12.19,-19.64 -83.78,-127.44 -172.91,-133.38 -276.14,-18.84 -3.02,3.42 -7.31,5.56 -13.93,10.66l0 0.05 0 0 0.02 -0.05 0 -0.03z"/>
  <path class="fil1" d="M9835.39 9263.21c60.3,78.83 94.25,153.89 31.21,235.76 -33.57,43.59 -100.26,52.76 -167.77,26.26 11.34,-10.89 20.32,-20.06 29.91,-28.43 47.67,-41.87 83.17,-90.17 67.33,-157.92 -15.79,-67.37 -73.08,-97.29 -126.33,-128.92 -6.39,-3.61 -19.45,2.36 -28.85,5.56 -34.18,12.19 -51.91,1.06 -59.83,-35.05 -3.42,-14.73 -15.61,-33.76 -28.67,-39.56 -139.77,-63.48 -285.12,-105.35 -440.5,-98.96 -104.53,4.27 -202.24,30.6 -286.23,96.23 -99.15,77.34 -126.1,234.65 -58.77,340.47 40.38,63.91 149.62,83.17 205.42,31.21 18.39,-17.09 30.34,-51.53 27.75,-76.54 -1.25,-13.01 -39.51,-23.1 -61.55,-33.57 -15.61,-7.45 -32.04,-13.67 -54.27,-22.87 57.05,-39.13 120.56,-34.87 152.17,2.55 33.12,39.13 25.27,109.48 -16.86,153.25 -79.94,83.17 -276.8,62.42 -316.38,-70.11 -51.46,-171.85 -0.19,-312.92 152.64,-406.31 143.85,-88.07 295.4,-82.98 449.27,-43.4 89.56,23.29 176.12,58.58 264.8,86.14 18.62,5.75 40.62,4.9 60.51,2.12 26.94,-3.61 48.99,-6.39 57.28,28.43 2.78,10.7 14.36,23.76 24.82,27.79 119.26,44.04 239.37,85.71 369.52,82.72 97.29,-2.17 176.17,-58.58 208.01,-150.05 12.19,-34.63 12.82,-67.75 -12.38,-96.42 -26.94,-30.34 -62.42,-39.96 -101.56,-30.55 -28.01,6.62 -55.12,17.09 -91.7,28.62 2.78,-18.84 1.3,-31.64 6.44,-40.19 35.93,-58.53 128.88,-95.73 190.85,-77.79 75.67,21.81 113.74,80.81 119.71,162.87 10.28,137.86 -120.13,246.46 -264.61,246.65 -86.33,0.24 -172.72,-13.01 -259.05,-20.06 -10.28,-0.87 -20.74,0 -42.34,0l0 0 0 0 0 0.02 0.01 0.05z"/>
  <path class="fil1" d="M11274.53 9567.33c-15.18,-12.14 -32.93,-22.42 -45.33,-36.96 -48.11,-56.6 -111.79,-78.64 -182.32,-77.16 -137.91,3.02 -275.76,12.38 -413.6,16.03 -220.58,5.56 -436.89,-16.48 -638.21,-117.11 -13.25,-6.62 -25.88,-14.12 -36.59,-28.43 63.91,8.11 127.63,23.48 191.35,22.42 66.69,-0.87 135.27,-10.47 198.96,-29.49 60.25,-17.96 94.06,-72.47 116.05,-132.96 83.59,29.73 44.88,103.68 60.7,157.09 68.22,-10.89 133.38,-24.16 199.22,-31.21 147.69,-15.84 292.22,-4.5 420.86,79.09 41.3,26.71 79.09,60.07 113.32,95.54 17.52,18.39 23.48,47.88 34.82,72.23 -6.39,3.65 -12.82,7.31 -19.21,10.89l0 0 0 0.02 -0.02 0.01z"/>
  <path class="fil1" d="M8387.28 6560.61c20.32,11.76 43.82,19.87 60.25,35.71 109.05,102.57 171.22,230.17 170.18,379.61 -0.87,102.8 -20.93,205.61 -32.27,308.39 -1.72,14.97 -3.89,29.91 -5.99,47.05 34.42,1.91 65.63,0 94.51,7 17.96,4.5 39.51,19.07 47.24,35.1 13.2,26.71 -12.64,32.89 -32.32,43.8 -86.14,47.24 -123.97,126.33 -123.1,219.73 0.66,86.56 14.12,172.72 22.04,259.1 0.64,7.24 1.06,14.5 -5.75,24.96 -8.16,-13.86 -17.14,-27.32 -23.97,-41.87 -68.17,-145.14 -106.22,-298.61 -104.29,-458.7 2.12,-160.94 16.43,-321.71 22.65,-482.41 2.55,-66.5 4.27,-134.06 -5.99,-199.03 -6.2,-38.71 -35.29,-73.95 -56.22,-109.62 -11.08,-19.07 -26.71,-35.71 -40.19,-53.44 4.5,-5.14 8.79,-10.28 13.25,-15.42l0 0 0 0 0 -0.02 -0.03 0.06z"/>
  <path class="fil1" d="M8459.3 8699.73c-56.6,-35.43 -77.16,-96.79 -58.53,-165.6 33.33,-123.78 173.53,-170.6 269.52,-87.01 74.37,64.97 115.86,148.56 117.77,248.77 1.49,75.67 5.14,151.77 -28.43,223.6 -53.87,115.18 -158.84,173.97 -261.01,139.77 -26.9,-9.17 -51.27,-28.01 -73.71,-46.18 -7.73,-6.2 -5.99,-24.09 -8.53,-36.73 12.38,0.42 27.56,-3.65 36.96,1.91 109.85,64.33 190.62,35.67 231.92,-85.53 33.57,-98.54 23.9,-189.37 -54.31,-265.86 -46.82,-45.57 -83.59,-44.7 -125.27,5.96 -16.67,20.13 -29.91,42.97 -46.37,66.88l0 0 0 0 0 0 -0.01 0.02z"/>
  <path class="fil1" d="M9136.03 9439.07c38.71,-26.07 63.3,-40.99 86.33,-58.53 47.48,-35.93 51.08,-73.76 13.06,-117.77 -85.53,-99.65 -260.13,-107.94 -355.47,-17.09 -49.6,47.24 -55.99,105.59 -17.77,163.48 4.27,6.44 11.34,11.95 13.06,19.02 2.97,12.19 2.78,25.27 3.84,37.84 -13.67,-3.61 -30.98,-3.18 -40.19,-11.76 -57.05,-52.76 -64.78,-155.56 -18.58,-227.39 47.88,-74.19 120.77,-110.3 204.36,-123.97 139.53,-22.87 268.88,-1.49 373.81,103.23 53.68,53.44 70.96,140.45 40,196.44 -38.07,68.62 -122.91,113.08 -195.57,94.06 -34.42,-9.22 -64.78,-34.18 -106.88,-57.52l0 0 0 0 0 -0.04z"/>
  <path class="fil1" d="M9233.08 8942.79c-13.06,-6.62 -23.1,-10.47 -31.87,-16.22 -77.98,-50.02 -152.36,-42.1 -224.18,13.25 -9.64,7.45 -19.68,16.86 -30.79,19.64 -12,2.78 -30.79,3.42 -36.77,-3.42 -5.96,-7.05 -5.14,-29.04 1.49,-36.35 70.34,-78.83 80.81,-164.17 34.63,-258.41 -3.84,-7.92 3.21,-21.17 5.14,-31.85 11.34,2.36 26.94,0.87 33.38,7.68 20.93,22.65 38.26,48.11 60.7,77.16 16.03,-14.73 31.21,-29.3 46.82,-42.97 16.48,-14.31 32.51,-29.3 50.66,-40.99 32.89,-21.17 67.99,-42.53 107.31,-16.9 22.65,14.97 22.23,81 -3.21,117.11 -20.93,29.73 -48.92,54.55 -75.44,83.17 34.63,33.99 97.43,56.41 62.19,129.11l0 0 0 0 -0.06 -0.01z"/>
  <path class="fil1" d="M8376.2 9219.78c104.74,47.43 198.96,-1.3 306.72,-34.63 -8.16,31.4 -9.41,51.53 -18.2,67.56 -37.84,69.05 -47.62,139.15 -17.96,213.72 4.5,11.13 0.24,25.65 0,38.71 -13.25,-1.3 -26.94,-0.87 -39.51,-4.03 -10.28,-2.78 -22.91,-7.73 -28.01,-15.61 -31.64,-50.9 -60.3,-27.37 -99.2,-5.56 -35.05,19.87 -79.94,22.42 -120.56,32.46 7.92,-37.6 15.42,-75.25 23.97,-112.85 1.49,-7.24 5.56,-14.73 10.47,-20.51 30.6,-36.77 40.81,-69.92 -7.92,-101.98 -10.89,-7.24 -12.56,-28.19 -18.58,-42.74 2.97,-4.9 5.75,-9.83 8.79,-14.54l0 0 0 0 0 0 -0.01 0z"/>
 </g>
</svg>
