<?xml version="1.0" encoding="UTF-8"?>
<!DOCTYPE svg PUBLIC "-//W3C//DTD SVG 1.1//EN" "http://www.w3.org/Graphics/SVG/1.1/DTD/svg11.dtd">
<!-- Creator: CorelDRAW 2021 (64-Bit Evaluation Version) -->
<svg xmlns="http://www.w3.org/2000/svg" xml:space="preserve" width="21cm" height="29.7cm" version="1.1" style="shape-rendering:geometricPrecision; text-rendering:geometricPrecision; image-rendering:optimizeQuality; fill-rule:evenodd; clip-rule:evenodd"
viewBox="0 0 2100000 2970000"
 xmlns:xlink="http://www.w3.org/1999/xlink"
 xmlns:xodm="http://www.corel.com/coreldraw/odm/2003">
 <defs>
  <style type="text/css">
   <![CDATA[
    .fil1 {fill:#434242}
    .fil0 {fill:#FFD540}
   ]]>
  </style>
 </defs>
 <g id="Layer_x0020_1">
  <metadata id="CorelCorpID_0Corel-Layer"/>
  <path class="fil0" d="M1124030 553032c4583,-2558 11223,-1968 14736,1908 7417,8181 3470,15951 -2821,24617 7216,-653 13101,-1139 18976,-1726 10472,-1046 20483,-105 29169,6628 11418,8848 11517,26278 -58,32839 -8504,4822 -17815,745 -23102,-6760 -453,-643 -368,-2398 134,-2793 604,-475 1955,-212 2921,10 2977,685 5905,2035 8890,2153 6147,244 9707,-4142 8925,-10264 -1043,-8184 -9443,-16765 -18103,-17644 -14278,-1449 -27589,2984 -40796,7621 -660,232 -1586,898 -1647,1446 -569,5093 -3419,4350 -7028,3289 -1683,-492 -3917,167 -5696,846 -13814,5248 -27779,9633 -42744,10177 -16018,580 -28881,-5486 -39138,-17570 -7890,-9297 -6733,-26523 -1265,-35214 5942,-9443 23216,-10237 30302,-1646 3258,3947 3894,10774 1342,14350 -2298,3226 -7240,4531 -11830,2859 -1033,-375 -1737,-1659 -2591,-2522 1042,-761 2052,-1576 3148,-2249 335,-207 989,138 1364,-44 2176,-1056 6015,-2070 6103,-3327 180,-2509 -992,-5985 -2864,-7614 -6662,-5794 -17868,-2813 -21668,5178 -5693,11970 -1932,27388 10206,34480 11337,6623 23622,9076 36246,7132 10928,-1686 21576,-5292 32257,-8359 1411,-406 2868,-2494 3305,-4077 963,-3505 2497,-4644 6049,-3248 1278,502 3011,14 4496,-251 705,-125 1318,-782 1965,-1210 12744,-8389 13352,-17299 1894,-27623 -338,-302 -567,-724 -1077,-1392z"/>
  <path class="fil0" d="M1012231 698683c-7897,6026 -15398,9436 -23582,3134 -4365,-3360 -5282,-10025 -2622,-16789 1083,1139 1996,2032 2837,2991 4195,4779 9017,8322 15800,6732 6727,-1576 9713,-7303 12878,-12632 375,-633 -229,-1945 -559,-2878 -1207,-3424 -97,-5201 3505,-5996 1493,-328 3379,-1542 3974,-2857 6333,-13979 10523,-28502 9892,-44052 -425,-10451 -3055,-20219 -9614,-28614 -7752,-9919 -23474,-12610 -34056,-5895 -6385,4051 -8322,14981 -3126,20545 1716,1838 5160,3035 7646,2793 1314,-130 2311,-3959 3366,-6156 754,-1576 1364,-3222 2294,-5446 3909,5711 3468,12065 -274,15233 -3904,3306 -10931,2522 -15313,-1691 -8313,-7998 -6241,-27686 6997,-31644 17184,-5136 31311,-13 40648,15260 8805,14405 8286,29558 4325,44932 -2310,8970 -5844,17617 -8610,26479 -583,1868 -484,4071 -211,6052 370,2692 636,4898 -2831,5738 -1087,264 -2391,1428 -2782,2479 -4419,11936 -8568,23938 -8273,36953 219,9733 5847,17608 15006,20806 3458,1208 6771,1284 9624,-1245 3044,-2700 3998,-6253 3065,-10159 -670,-2802 -1711,-5516 -2868,-9155 1894,271 3166,110 4021,633 5865,3588 9583,12878 7789,19089 -2182,7555 -8090,11364 -16290,11970 -13782,1020 -24638,-12025 -24676,-26458 -23,-8638 1311,-17279 2011,-25922 83,-1027 10,-2068 10,-4232l-1 2z"/>
  <path class="fil0" d="M981819 842602c1220,-1523 2233,-3287 3692,-4530 5653,-4816 7872,-11180 7718,-18228 -299,-13792 -1240,-27572 -1597,-41366 -573,-22067 1632,-43680 11698,-63821 660,-1320 1416,-2591 2843,-3651 -815,6375 -2344,12761 -2246,19123 101,6667 1043,13532 2954,19907 1803,6018 7246,9391 13295,11605 -2960,8349 -10362,4492 -15716,6063 1089,6817 2422,13334 3125,19917 1576,14786 453,29219 -7911,42100 -2675,4117 -6005,7910 -9547,11320 -1834,1763 -4787,2365 -7235,3493 -358,-644 -715,-1288 -1072,-1931l-1 -1z"/>
  <path class="fil0" d="M1282488 553876c-1170,2031 -1998,4380 -3560,6035 -10280,10897 -23033,17113 -37969,17001 -10290,-78 -20565,-2083 -30845,-3230 -1503,-167 -3001,-372 -4694,-580 -209,3434 -16,6544 -721,9438 -439,1797 -1907,3946 -3504,4731 -2662,1310 -3297,-1270 -4375,-3235 -4725,-8613 -12644,-12387 -21986,-12315 -8640,66 -17268,1418 -25902,2202 -724,66 -1445,120 -2497,-583 1391,-799 2735,-1699 4182,-2380 14525,-6828 29872,-10637 45871,-10431 16092,207 32166,1647 48258,2264 6632,256 13393,416 19900,-613 3856,-611 7391,-3521 10951,-5602 1911,-1119 3568,-2672 5341,-4030 514,443 1030,885 1548,1327l2 1z"/>
  <path class="fil0" d="M1068565 561080c3547,-5670 9691,-7719 16565,-5867 12387,3336 17057,17370 8704,26959 -6488,7444 -14855,11581 -24870,11785 -7579,154 -15173,506 -22371,-2854 -11525,-5376 -17392,-15877 -13962,-26084 903,-2692 2789,-5140 4606,-7387 621,-771 2415,-594 3675,-851 -38,1248 372,2759 -184,3702 -6439,10979 -3570,19072 8553,23192 9851,3349 18928,2390 26570,-5438 4557,-4667 4472,-8356 -598,-12527 -2006,-1652 -4279,-2980 -6686,-4630l-2 0z"/>
  <path class="fil0" d="M994639 628748c2599,3860 4104,6337 5845,8631 3608,4752 7377,5120 11795,1318 9949,-8563 10786,-26022 1707,-35559 -4722,-4960 -10572,-5599 -16350,-1777 -647,426 -1204,1137 -1902,1307 -1224,296 -2525,272 -3795,385 366,-1358 322,-3098 1168,-4011 5291,-5704 15568,-6477 22747,-1854 7430,4784 11044,12071 12407,20423 2279,13956 148,26885 -10323,37390 -5347,5364 -14056,7096 -19642,3996 -6870,-3812 -11304,-12292 -9403,-19564 901,-3446 3411,-6472 5746,-10687l0 2z"/>
  <path class="fil0" d="M1044267 638445c654,-1301 1049,-2294 1615,-3176 5003,-7796 4225,-15232 -1305,-22413 -750,-975 -1691,-1968 -1969,-3095 -291,-1178 -349,-3061 338,-3656 698,-604 2896,-532 3641,135 7880,7044 16407,8085 25833,3460 791,-388 2115,316 3193,513 -239,1140 -90,2696 -787,3344 -2250,2085 -4811,3833 -7708,6066 1483,1610 2934,3115 4298,4691 1422,1642 2930,3246 4098,5063 2115,3286 4252,6791 1681,10722 -1488,2274 -8085,2224 -11706,-325 -2970,-2092 -5445,-4889 -8318,-7541 -3391,3473 -5641,9760 -12906,6214l2 -2z"/>
  <path class="fil0" d="M1016570 552760c-4758,10484 120,19903 3447,30680 -3132,-817 -5146,-949 -6752,-1830 -6904,-3773 -13911,-4759 -21372,-1783 -1113,442 -2566,24 -3863,6 120,-1330 77,-2700 413,-3969 268,-1013 761,-2284 1563,-2784 5086,-3172 2719,-6048 546,-9918 -1976,-3518 -2237,-8000 -3252,-12058 3763,785 7534,1539 11284,2383 732,164 1476,569 2056,1050 3668,3058 6982,4077 10197,-784 721,-1089 2819,-1271 4283,-1870 482,292 966,584 1449,876l1 1z"/>
  <path class="fil1" d="M1120119 552587c4583,-2558 11223,-1968 14736,1908 7417,8182 3470,15950 -2821,24617 7216,-654 13101,-1140 18976,-1726 10472,-1046 20483,-105 29169,6626 11418,8849 11517,26278 -58,32839 -8504,4822 -17815,745 -23103,-6760 -453,-643 -366,-2398 134,-2793 604,-476 1955,-214 2921,10 2977,685 5905,2036 8889,2153 6147,242 9707,-4142 8925,-10264 -1043,-8185 -9443,-16765 -18103,-17644 -14278,-1449 -27589,2984 -40796,7621 -660,231 -1586,898 -1647,1445 -569,5093 -3419,4350 -7028,3290 -1683,-492 -3917,167 -5696,845 -13814,5248 -27779,9634 -42744,10177 -16018,580 -28881,-5485 -39138,-17570 -7890,-9295 -6733,-26522 -1265,-35214 5942,-9443 23216,-10236 30302,-1646 3256,3947 3894,10774 1342,14351 -2298,3225 -7240,4530 -11830,2859 -1032,-376 -1737,-1660 -2591,-2524 1042,-760 2052,-1576 3148,-2249 335,-207 989,138 1364,-44 2176,-1054 6015,-2070 6105,-3327 178,-2509 -993,-5985 -2866,-7614 -6662,-5795 -17866,-2813 -21667,5178 -5693,11970 -1934,27388 10206,34480 11337,6622 23622,9074 36246,7132 10928,-1686 21576,-5292 32257,-8359 1411,-405 2868,-2492 3305,-4075 963,-3505 2497,-4645 6049,-3249 1278,502 3011,14 4496,-249 705,-125 1318,-784 1966,-1210 12744,-8389 13352,-17299 1894,-27625 -338,-304 -567,-724 -1077,-1392l0 3z"/>
  <path class="fil1" d="M1008319 698239c-7897,6025 -15397,9436 -23582,3134 -4365,-3360 -5282,-10023 -2622,-16788 1083,1137 1996,2032 2837,2990 4195,4779 9017,8322 15800,6732 6727,-1576 9713,-7302 12878,-12632 376,-631 -229,-1945 -559,-2878 -1207,-3426 -97,-5203 3505,-5996 1493,-329 3379,-1543 3974,-2857 6333,-13980 10525,-28502 9892,-44052 -425,-10449 -3055,-20219 -9614,-28612 -7752,-9921 -23474,-12611 -34056,-5897 -6385,4051 -8322,14981 -3126,20545 1716,1838 5160,3035 7646,2793 1314,-128 2311,-3957 3366,-6154 754,-1576 1364,-3223 2294,-5448 3909,5711 3468,12067 -274,15233 -3904,3305 -10931,2524 -15313,-1691 -8313,-7998 -6241,-27687 6997,-31644 17185,-5137 31312,-13 40648,15259 8805,14405 8286,29558 4325,44934 -2310,8970 -5844,17617 -8610,26479 -583,1867 -484,4071 -211,6052 370,2692 636,4898 -2833,5738 -1087,264 -2391,1426 -2782,2478 -4419,11936 -8568,23938 -8273,36954 219,9731 5847,17607 15006,20805 3458,1208 6771,1285 9624,-1245 3044,-2700 3998,-6251 3065,-10157 -670,-2803 -1711,-5516 -2868,-9157 1894,272 3166,110 4021,633 5867,3588 9583,12879 7789,19090 -2183,7555 -8088,11364 -16290,11970 -13782,1020 -24638,-12027 -24676,-26458 -23,-8640 1311,-17279 2011,-25922 83,-1027 10,-2069 10,-4231l1 0z"/>
  <path class="fil1" d="M977907 842159c1220,-1525 2233,-3289 3692,-4530 5653,-4818 7872,-11182 7718,-18228 -299,-13792 -1240,-27572 -1597,-41366 -573,-22067 1632,-43681 11698,-63821 660,-1320 1416,-2591 2843,-3651 -815,6375 -2344,12761 -2246,19123 101,6669 1043,13530 2954,19908 1803,6018 7246,9391 13295,11604 -2960,8350 -10362,4492 -15715,6063 1089,6817 2422,13334 3124,19917 1576,14787 453,29219 -7911,42100 -2675,4117 -6005,7910 -9547,11320 -1834,1764 -4787,2365 -7235,3493 -358,-644 -714,-1288 -1072,-1931l-1 -1z"/>
  <path class="fil1" d="M1278576 553432c-1168,2029 -1998,4380 -3560,6035 -10280,10897 -23033,17113 -37969,17001 -10290,-78 -20565,-2082 -30845,-3230 -1503,-168 -3001,-372 -4694,-580 -209,3434 -16,6545 -721,9438 -439,1798 -1907,3947 -3504,4732 -2662,1308 -3297,-1271 -4375,-3235 -4725,-8614 -12644,-12387 -21986,-12316 -8640,66 -17268,1419 -25902,2202 -724,66 -1445,120 -2497,-581 1391,-799 2735,-1700 4182,-2380 14525,-6830 29872,-10639 45871,-10431 16094,205 32166,1647 48260,2264 6632,255 13393,415 19900,-613 3856,-610 7393,-3521 10951,-5602 1911,-1119 3568,-2672 5341,-4030 514,443 1030,885 1546,1327l2 -1z"/>
  <path class="fil1" d="M1064653 560636c3547,-5670 9691,-7719 16565,-5865 12387,3336 17057,17369 8704,26958 -6489,7444 -14855,11582 -24872,11785 -7579,154 -15173,504 -22371,-2854 -11524,-5378 -17392,-15877 -13962,-26084 903,-2692 2789,-5140 4606,-7389 621,-769 2415,-594 3675,-849 -38,1248 370,2757 -184,3702 -6439,10978 -3571,19072 8553,23190 9851,3349 18928,2390 26570,-5436 4557,-4668 4472,-8356 -598,-12528 -2006,-1652 -4279,-2978 -6686,-4630z"/>
  <path class="fil1" d="M990728 628305c2599,3860 4104,6335 5845,8631 3607,4752 7377,5121 11795,1320 9949,-8563 10787,-26022 1707,-35559 -4722,-4960 -10572,-5599 -16350,-1777 -647,426 -1204,1136 -1902,1305 -1224,296 -2525,274 -3795,386 366,-1359 322,-3099 1168,-4011 5291,-5703 15566,-6477 22747,-1852 7430,4782 11044,12070 12406,20421 2279,13956 148,26885 -10323,37391 -5347,5364 -14056,7096 -19642,3994 -6870,-3810 -11304,-12292 -9403,-19564 901,-3446 3411,-6472 5746,-10686l1 1z"/>
  <path class="fil1" d="M1040356 638001c654,-1301 1049,-2293 1615,-3175 5003,-7796 4225,-15232 -1305,-22415 -750,-975 -1690,-1968 -1969,-3095 -291,-1177 -349,-3061 338,-3655 698,-604 2896,-532 3641,134 7880,7045 16407,8085 25833,3460 791,-386 2115,316 3192,513 -239,1140 -90,2696 -787,3344 -2250,2085 -4811,3833 -7708,6066 1482,1612 2933,3115 4298,4691 1422,1643 2930,3248 4098,5063 2115,3286 4252,6793 1681,10722 -1488,2276 -8085,2226 -11706,-323 -2970,-2093 -5445,-4891 -8318,-7542 -3391,3473 -5641,9760 -12906,6214l3 -2z"/>
  <path class="fil1" d="M1012658 552317c-4758,10482 120,19903 3447,30678 -3132,-815 -5146,-949 -6752,-1828 -6904,-3773 -13911,-4759 -21372,-1784 -1113,443 -2566,24 -3863,6 121,-1330 77,-2699 413,-3969 268,-1012 761,-2283 1563,-2784 5086,-3172 2719,-6048 546,-9918 -1976,-3518 -2237,-8000 -3252,-12058 3763,784 7534,1538 11284,2383 732,165 1476,570 2056,1052 3668,3057 6982,4077 10197,-784 721,-1090 2819,-1271 4283,-1870 482,294 966,584 1449,876l1 0z"/>
 </g>
</svg>
