<?xml version="1.0" encoding="UTF-8"?>
<!DOCTYPE svg PUBLIC "-//W3C//DTD SVG 1.1//EN" "http://www.w3.org/Graphics/SVG/1.1/DTD/svg11.dtd">
<!-- Creator: CorelDRAW 2021 (64-Bit Evaluation Version) -->
<svg xmlns="http://www.w3.org/2000/svg" xml:space="preserve" width="3.06062cm" height="3cm" version="1.1" style="shape-rendering:geometricPrecision; text-rendering:geometricPrecision; image-rendering:optimizeQuality; fill-rule:evenodd; clip-rule:evenodd"
viewBox="0 0 1298.32 1272.61"
 xmlns:xlink="http://www.w3.org/1999/xlink"
 xmlns:xodm="http://www.corel.com/coreldraw/odm/2003">
 <defs>
  <style type="text/css">
   <![CDATA[
    .fil1 {fill:#434242}
    .fil0 {fill:#FFD540}
   ]]>
  </style>
 </defs>
 <g id="Layer_x0020_1">
  <metadata id="CorelCorpID_0Corel-Layer"/>
  <path class="fil0" d="M672.13 1236.58c-19.41,10.77 -47.6,8.33 -62.47,-8.17 -31.47,-34.65 -14.69,-67.64 11.98,-104.37 -30.65,2.73 -55.59,4.81 -80.51,7.25 -44.44,4.44 -86.87,0.45 -123.78,-28.11 -48.41,-37.54 -48.78,-111.43 0.28,-139.26 36.07,-20.49 75.61,-3.18 98.01,28.66 1.89,2.71 1.53,10.22 -0.55,11.88 -2.63,1.99 -8.35,0.9 -12.43,0 -12.61,-2.99 -25.03,-8.72 -37.72,-9.17 -26.01,-1.08 -41.16,17.6 -37.8,43.53 4.36,34.73 39.98,71.09 76.79,74.9 60.58,6.07 116.98,-12.69 173.01,-32.36 2.81,-1 6.7,-3.81 6.99,-6.17 2.44,-21.59 14.5,-18.41 29.82,-13.97 7.17,2.1 16.6,-0.63 24.22,-3.52 58.58,-22.3 117.77,-40.9 181.24,-43.16 68.01,-2.44 122.51,23.2 166.02,74.53 33.46,39.43 28.58,112.51 5.36,149.34 -25.22,40.06 -98.46,43.43 -128.48,6.97 -13.87,-16.76 -16.5,-45.69 -5.7,-60.84 9.78,-13.69 30.74,-19.21 50.13,-12.14 4.44,1.63 7.43,7.07 11.06,10.69 -4.44,3.26 -8.7,6.72 -13.4,9.53 -1.36,0.9 -4.17,-0.55 -5.72,0.16 -9.25,4.54 -25.56,8.8 -25.93,14.16 -0.73,10.61 4.26,25.38 12.14,32.28 28.29,24.56 75.81,11.96 91.94,-21.96 24.12,-50.78 8.17,-116.14 -43.34,-146.24 -48.05,-28.11 -100.19,-38.54 -153.68,-30.29 -46.42,7.17 -91.58,22.49 -136.92,35.46 -5.99,1.71 -12.14,10.59 -13.95,17.31 -4.09,14.87 -10.61,19.67 -25.67,13.79 -5.44,-2.18 -12.79,-0.1 -19.12,1.08 -2.99,0.45 -5.54,3.26 -8.35,5.07 -54.04,35.64 -56.58,73.37 -7.99,117.24 1.45,1.28 2.36,2.99 4.54,5.88l0 0.02 0 0 -0.01 0z"/>
  <path class="fil0" d="M1146.43 618.65c33.46,-25.48 65.28,-39.98 100.01,-13.24 18.49,14.24 22.41,42.53 11.16,71.19 -4.62,-4.81 -8.54,-8.62 -12.06,-12.71 -17.78,-20.2 -38.27,-35.26 -67.01,-28.56 -28.56,6.72 -41.25,31.02 -54.67,53.59 -1.55,2.73 1,8.25 2.34,12.24 5.17,14.5 0.47,22.04 -14.87,25.48 -6.25,1.36 -14.32,6.54 -16.76,12.06 -26.93,59.29 -44.71,120.95 -41.98,186.88 1.81,44.34 12.96,85.77 40.8,121.4 32.81,42.08 99.56,53.51 144.43,25.03 27.11,-17.23 35.28,-63.57 13.24,-87.22 -7.25,-7.8 -21.86,-12.89 -32.47,-11.79 -5.52,0.55 -9.78,16.78 -14.22,26.11 -3.18,6.62 -5.8,13.61 -9.72,23.12 -16.58,-24.3 -14.77,-51.23 1.1,-64.65 16.58,-14.05 46.42,-10.69 65,7.17 35.28,33.91 26.48,117.42 -29.74,134.29 -72.9,21.75 -132.74,0 -172.36,-64.75 -37.36,-61.11 -35.18,-125.39 -18.41,-190.67 9.88,-38.01 24.85,-74.71 36.54,-112.25 2.44,-7.99 2.1,-17.33 0.92,-25.67 -1.55,-11.43 -2.73,-20.86 12.06,-24.4 4.52,-1.08 10.06,-6.07 11.77,-10.51 18.68,-50.59 36.36,-101.56 35.09,-156.77 -0.9,-41.25 -24.85,-74.63 -63.65,-88.22 -14.69,-5.17 -28.74,-5.44 -40.9,5.25 -12.87,11.51 -16.95,26.56 -12.96,43.06 2.81,11.9 7.25,23.4 12.14,38.9 -7.96,-1.18 -13.4,-0.45 -17.05,-2.71 -24.83,-15.24 -40.61,-54.59 -33,-80.98 9.25,-32 34.28,-48.23 69.09,-50.78 58.48,-4.34 104.55,51.06 104.63,112.25 0.1,36.64 -5.52,73.27 -8.51,109.99 -0.37,4.36 0,8.72 0,17.86l0 0 0 0 0.01 0z"/>
  <path class="fil0" d="M1275.46 8.17c-5.17,6.52 -9.53,13.95 -15.68,19.21 -24.04,20.51 -33.38,47.44 -32.73,77.36 1.26,58.48 5.25,116.95 6.78,175.43 2.36,93.67 -6.97,185.33 -49.68,270.76 -2.81,5.62 -5.99,10.96 -12.06,15.5 3.44,-27.03 9.98,-54.14 9.51,-81.15 -0.35,-28.29 -4.44,-57.4 -12.51,-84.43 -7.62,-25.56 -30.74,-39.8 -56.4,-49.23 12.61,-35.44 43.98,-19.04 66.64,-25.75 -4.62,-28.92 -10.25,-56.48 -13.24,-84.4 -6.7,-62.75 -1.89,-123.96 33.55,-178.63 11.35,-17.5 25.48,-33.55 40.53,-48.05 7.8,-7.43 20.31,-9.98 30.65,-14.79 1.55,2.73 3.07,5.44 4.62,8.17l0 0 0 0 0.01 0z"/>
  <path class="fil0" d="M-0 1232.96c4.97,-8.62 8.43,-18.59 15.13,-25.58 43.53,-46.24 97.64,-72.61 161.03,-72.17 43.61,0.37 87.22,8.88 130.85,13.77 6.33,0.65 12.69,1.55 19.94,2.46 0.81,-14.6 0,-27.76 2.99,-40.09 1.89,-7.62 8.07,-16.68 14.87,-20.04 11.33,-5.52 13.95,5.36 18.58,13.69 20.04,36.54 53.59,52.59 93.22,52.22 36.7,-0.27 73.24,-5.97 109.89,-9.33 3.07,-0.27 6.17,-0.45 10.61,2.54 -5.91,3.34 -11.61,7.15 -17.78,10.06 -61.55,28.92 -126.67,45.14 -194.58,44.24 -68.27,-0.92 -136.45,-6.99 -204.64,-9.61 -28.19,-1.08 -56.85,-1.71 -84.4,2.63 -16.42,2.54 -31.39,14.87 -46.52,23.75 -8.07,4.72 -15.13,11.35 -22.67,17.05 -2.18,-1.81 -4.36,-3.71 -6.52,-5.62l0 0.02 0 0 -0 0z"/>
  <path class="fil0" d="M907.42 1202.38c-15.05,24.04 -41.08,32.73 -70.27,24.95 -52.51,-14.16 -72.35,-73.73 -36.91,-114.43 27.56,-31.57 63.02,-49.07 105.55,-49.96 32.1,-0.63 64.36,-2.18 94.83,12.14 48.96,22.77 73.82,67.28 59.29,110.62 -3.89,11.43 -11.88,21.77 -19.57,31.37 -2.63,3.28 -10.25,2.46 -15.6,3.54 0.18,-5.25 -1.53,-11.69 0.81,-15.68 27.29,-46.6 15.15,-80.88 -36.25,-98.38 -41.8,-14.24 -80.33,-10.17 -112.8,23.02 -19.31,19.86 -18.94,35.46 2.54,53.24 8.51,6.97 18.21,12.59 28.37,19.57l0 0 0 0z"/>
  <path class="fil0" d="M1221.05 915.33c-11.06,-16.33 -17.41,-26.85 -24.85,-36.64 -15.24,-20.12 -31.29,-21.67 -49.96,-5.52 -42.24,36.25 -45.79,110.34 -7.25,150.79 20.04,21.02 44.79,23.75 69.35,7.6 2.73,-1.81 5.09,-4.89 8.09,-5.62 5.15,-1.16 10.69,-1.08 16.05,-1.63 -1.55,5.8 -1.36,13.16 -4.99,17.05 -22.41,24.22 -66.01,27.48 -96.48,7.88 -31.45,-20.31 -46.79,-51.23 -52.59,-86.67 -9.7,-59.21 -0.63,-113.98 43.81,-158.59 22.67,-22.75 59.56,-30.1 83.33,-16.95 29.09,16.13 47.95,52.12 39.88,82.96 -3.89,14.69 -14.5,27.48 -24.38,45.34l0 0 0 0 -0 0z"/>
  <path class="fil0" d="M1010.51 874.25c-2.81,5.54 -4.44,9.7 -6.88,13.42 -21.22,33.1 -17.86,64.65 5.62,95.12 3.18,4.07 7.17,8.33 8.33,13.14 1.18,4.99 1.47,12.98 -1.45,15.5 -2.99,2.54 -12.32,2.28 -15.42,-0.63 -33.44,-29.82 -69.62,-34.26 -109.6,-14.58 -3.36,1.63 -8.98,-1.36 -13.52,-2.18 1,-4.91 0.37,-11.53 3.26,-14.24 9.61,-8.88 20.41,-16.23 32.73,-25.75 -6.25,-6.8 -12.4,-13.16 -18.21,-19.86 -6.09,-6.99 -12.43,-13.79 -17.41,-21.49 -8.98,-13.97 -18.04,-28.84 -7.17,-45.52 6.35,-9.61 34.36,-9.43 49.7,1.45 12.61,8.8 23.12,20.67 35.26,31.92 14.42,-14.69 23.95,-41.35 54.77,-26.3l0 0 0 0 -0.01 0z"/>
  <path class="fil0" d="M1128.01 1237.66c20.14,-44.43 -0.53,-84.4 -14.69,-130.11 13.34,3.44 21.86,4.07 28.66,7.8 29.29,15.95 59.03,20.12 90.68,7.52 4.7,-1.89 10.88,-0.08 16.4,0 -0.53,5.62 -0.35,11.43 -1.71,16.78 -1.18,4.36 -3.26,9.7 -6.62,11.88 -21.59,13.42 -11.61,25.67 -2.36,42.08 8.43,14.87 9.51,33.91 13.79,51.12 -15.97,-3.34 -31.92,-6.52 -47.88,-10.14 -3.07,-0.63 -6.25,-2.36 -8.7,-4.44 -15.6,-12.98 -29.66,-17.23 -43.24,3.34 -3.1,4.62 -11.98,5.36 -18.15,7.9 -2.08,-1.18 -4.17,-2.46 -6.15,-3.73l-0.02 0 0 0 -0.01 -0z"/>
  <path class="fil1" d="M688.73 1238.39c-19.41,10.88 -47.6,8.43 -62.47,-8.09 -31.47,-34.73 -14.7,-67.64 11.96,-104.35 -30.64,2.71 -55.59,4.79 -80.51,7.25 -44.43,4.44 -86.85,0.45 -123.76,-28.11 -48.41,-37.54 -48.78,-111.43 0.27,-139.28 36.09,-20.49 75.63,-3.18 98.01,28.66 1.91,2.71 1.55,10.17 -0.53,11.88 -2.63,1.99 -8.35,0.92 -12.43,-0.08 -12.61,-2.91 -25.03,-8.62 -37.72,-9.09 -26.03,-1.08 -41.16,17.52 -37.8,43.53 4.34,34.73 39.98,71.09 76.79,74.81 60.58,6.15 116.98,-12.61 173.01,-32.28 2.81,-1 6.7,-3.81 6.97,-6.17 2.44,-21.57 14.5,-18.39 29.84,-13.95 7.17,2.08 16.58,-0.73 24.2,-3.54 58.58,-22.3 117.79,-40.88 181.26,-43.16 68.01,-2.53 122.5,23.22 166.02,74.53 33.46,39.35 28.56,112.43 5.36,149.34 -25.22,40.09 -98.48,43.43 -128.48,6.99 -13.87,-16.78 -16.5,-45.71 -5.72,-60.84 9.8,-13.69 30.74,-19.23 50.15,-12.16 4.44,1.55 7.43,6.99 11.06,10.72 -4.44,3.16 -8.7,6.7 -13.42,9.51 -1.36,0.92 -4.17,-0.55 -5.7,0.18 -9.25,4.44 -25.58,8.8 -25.93,14.14 -0.73,10.61 4.26,25.4 12.14,32.28 28.29,24.56 75.81,11.98 91.94,-21.94 24.12,-50.78 8.17,-116.24 -43.34,-146.26 -48.05,-28.11 -100.19,-38.54 -153.68,-30.29 -46.44,7.17 -91.58,22.41 -136.92,35.46 -5.99,1.73 -12.16,10.61 -13.97,17.31 -4.07,14.87 -10.59,19.67 -25.67,13.79 -5.44,-2.18 -12.77,-0.08 -19.12,1 -2.99,0.55 -5.52,3.36 -8.33,5.17 -54.06,35.54 -56.58,73.35 -7.99,117.14 1.45,1.28 2.36,3.1 4.52,5.91l0.02 0 0 0 -0.02 -0.01z"/>
  <path class="fil1" d="M1163.03 620.56c33.44,-25.58 65.28,-39.98 100.01,-13.24 18.49,14.24 22.38,42.53 11.14,71.17 -4.62,-4.81 -8.51,-8.62 -12.06,-12.69 -17.76,-20.22 -38.25,-35.28 -66.99,-28.56 -28.58,6.7 -41.27,31 -54.69,53.59 -1.53,2.71 1,8.25 2.36,12.24 5.17,14.5 0.45,22.02 -14.87,25.38 -6.25,1.45 -14.32,6.62 -16.78,12.16 -26.93,59.29 -44.69,120.95 -41.98,186.86 1.81,44.34 12.98,85.79 40.82,121.42 32.81,42.06 99.54,53.49 144.43,24.93 27.11,-17.13 35.28,-63.47 13.24,-87.14 -7.25,-7.8 -21.86,-12.87 -32.47,-11.77 -5.52,0.53 -9.8,16.76 -14.24,26.11 -3.16,6.62 -5.8,13.59 -9.7,23.02 -16.6,-24.2 -14.79,-51.14 1.08,-64.55 16.6,-14.05 46.44,-10.72 65.01,7.15 35.28,33.91 26.48,117.42 -29.74,134.21 -72.9,21.83 -132.74,0.08 -172.36,-64.75 -37.36,-61.02 -35.2,-125.31 -18.41,-190.58 9.88,-37.99 24.85,-74.71 36.54,-112.33 2.44,-7.9 2.08,-17.23 0.9,-25.67 -1.53,-11.43 -2.71,-20.78 12.06,-24.3 4.54,-1.18 10.08,-6.09 11.79,-10.53 18.68,-50.59 36.36,-101.54 35.09,-156.75 -0.92,-41.27 -24.85,-74.73 -63.65,-88.24 -14.69,-5.17 -28.74,-5.44 -40.9,5.25 -12.87,11.43 -16.95,26.48 -12.96,43.08 2.81,11.88 7.25,23.38 12.14,38.9 -7.99,-1.18 -13.42,-0.55 -17.05,-2.73 -24.83,-15.24 -40.61,-54.67 -33,-80.96 9.25,-32.1 34.28,-48.25 69.09,-50.78 58.48,-4.36 104.55,50.96 104.63,112.25 0.1,36.62 -5.52,73.27 -8.51,109.89 -0.37,4.36 0,8.8 0,17.96l0 0 0 0 0.01 -0z"/>
  <path class="fil1" d="M1292.04 10.07c-5.15,6.44 -9.51,13.97 -15.68,19.23 -24.01,20.41 -33.36,47.42 -32.73,77.34 1.28,58.5 5.25,116.98 6.8,175.45 2.36,93.57 -6.99,185.33 -49.68,270.73 -2.81,5.62 -5.99,10.98 -12.06,15.52 3.44,-27.11 9.96,-54.14 9.51,-81.17 -0.37,-28.29 -4.44,-57.38 -12.51,-84.4 -7.62,-25.56 -30.74,-39.9 -56.4,-49.23 12.61,-35.46 43.98,-19.04 66.64,-25.75 -4.62,-28.94 -10.25,-56.58 -13.24,-84.51 -6.72,-62.65 -1.91,-123.96 33.55,-178.53 11.33,-17.52 25.48,-33.55 40.53,-48.07 7.8,-7.43 20.31,-9.96 30.64,-14.77 1.55,2.71 3.1,5.44 4.62,8.15l0 0 0.01 -0z"/>
  <path class="fil1" d="M16.58 1234.85c4.99,-8.62 8.43,-18.59 15.15,-25.56 43.51,-46.26 97.64,-72.63 161.03,-72.19 43.61,0.37 87.22,8.88 130.82,13.69 6.35,0.73 12.69,1.65 19.96,2.54 0.81,-14.6 0,-27.84 2.97,-40.09 1.91,-7.62 8.09,-16.76 14.89,-20.04 11.33,-5.6 13.95,5.36 18.58,13.71 20.04,36.54 53.59,52.59 93.21,52.22 36.72,-0.28 73.27,-5.99 109.91,-9.35 3.07,-0.27 6.15,-0.45 10.59,2.44 -5.88,3.46 -11.59,7.27 -17.76,10.17 -61.57,28.92 -126.67,45.06 -194.58,44.24 -68.27,-0.9 -136.47,-6.97 -204.64,-9.61 -28.21,-1.08 -56.87,-1.81 -84.43,2.54 -16.42,2.63 -31.37,14.97 -46.5,23.85 -8.09,4.7 -15.15,11.33 -22.67,17.05 -2.18,-1.91 -4.36,-3.73 -6.54,-5.62l0 0 0 0 -0.01 0z"/>
  <path class="fil1" d="M924 1204.3c-15.03,24.01 -41.06,32.73 -70.25,24.83 -52.51,-14.14 -72.37,-73.61 -36.91,-114.33 27.56,-31.55 63.02,-49.15 105.53,-49.96 32.1,-0.63 64.38,-2.18 94.85,12.06 48.86,22.85 73.8,67.38 59.29,110.72 -3.89,11.41 -11.88,21.75 -19.59,31.27 -2.63,3.28 -10.22,2.54 -15.58,3.62 0.18,-5.25 -1.55,-11.69 0.81,-15.68 27.29,-46.6 15.13,-80.86 -36.28,-98.38 -41.8,-14.24 -80.33,-10.14 -112.78,23.04 -19.33,19.86 -18.96,35.46 2.53,53.14 8.54,7.07 18.23,12.69 28.37,19.67l0 0 0 0 0 0z"/>
  <path class="fil1" d="M1237.63 917.23c-11.06,-16.42 -17.39,-26.85 -24.83,-36.62 -15.24,-20.14 -31.29,-21.67 -49.96,-5.54 -42.27,36.28 -45.79,110.35 -7.25,150.79 20.04,21.04 44.79,23.75 69.35,7.54 2.73,-1.81 5.07,-4.81 8.07,-5.54 5.17,-1.26 10.72,-1.18 16.05,-1.63 -1.53,5.8 -1.35,13.14 -4.99,17.05 -22.38,24.2 -65.99,27.48 -96.46,7.88 -31.47,-20.31 -46.79,-51.23 -52.59,-86.69 -9.7,-59.19 -0.63,-114.06 43.79,-158.57 22.67,-22.77 59.58,-30.1 83.33,-16.97 29.11,16.15 47.97,52.14 39.9,82.96 -3.91,14.6 -14.5,27.48 -24.4,45.34l0 0 -0 0z"/>
  <path class="fil1" d="M1027.11 876.06c-2.81,5.54 -4.44,9.8 -6.88,13.52 -21.22,33.08 -17.86,64.63 5.62,95.1 3.16,4.09 7.15,8.35 8.33,13.06 1.18,5.09 1.45,13.06 -1.45,15.6 -2.99,2.53 -12.32,2.18 -15.42,-0.63 -33.44,-29.84 -69.64,-34.28 -109.62,-14.69 -3.36,1.63 -8.98,-1.36 -13.51,-2.18 1,-4.81 0.37,-11.43 3.26,-14.16 9.61,-8.88 20.41,-16.23 32.73,-25.75 -6.25,-6.8 -12.43,-13.24 -18.23,-19.86 -6.07,-6.99 -12.43,-13.79 -17.39,-21.49 -8.98,-13.95 -18.04,-28.84 -7.17,-45.52 6.35,-9.61 34.36,-9.43 49.68,1.36 12.61,8.88 23.14,20.75 35.28,32 14.42,-14.69 23.93,-41.33 54.77,-26.38l0 0 -0 0z"/>
  <path class="fil1" d="M1144.61 1239.55c20.12,-44.43 -0.55,-84.4 -14.69,-130.11 13.32,3.46 21.86,3.99 28.66,7.72 29.29,16.05 59.03,20.2 90.66,7.62 4.72,-1.91 10.88,-0.1 16.42,0 -0.55,5.62 -0.37,11.43 -1.71,16.76 -1.18,4.36 -3.28,9.72 -6.62,11.88 -21.59,13.42 -11.61,25.58 -2.36,42.08 8.43,14.87 9.51,33.91 13.77,51.14 -15.95,-3.36 -31.92,-6.54 -47.87,-10.17 -3.07,-0.63 -6.25,-2.36 -8.7,-4.44 -15.6,-12.98 -29.66,-17.31 -43.26,3.36 -3.07,4.62 -11.96,5.33 -18.13,7.88 -2.08,-1.26 -4.17,-2.44 -6.17,-3.73l0 0 0 0 -0 -0z"/>
 </g>
</svg>
