<?xml version="1.0" encoding="utf-8"?>
<svg id="master-artboard" viewBox="0 0 430.40679931640625 263.9883728027344" xmlns="http://www.w3.org/2000/svg" width="430.40679931640625px" height="263.9883728027344px" version="1.1" style="shape-rendering:geometricPrecision; text-rendering:geometricPrecision; image-rendering:optimizeQuality; fill-rule:evenodd; clip-rule:evenodd"><defs><path id="text-path-0" d="M 778.8464965820312 213.4612274169922 A 100 18 0 0 1 988.3533935546875 213.4612274169922 A 100 18 0 0 1 778.8464965820312 213.4612274169922 Z" style="fill: none; stroke: red; stroke-width: 2;"/><path id="text-path-1" d="M 664.5464477539062 37.96122741699219 A 100 19 0 0 1 876.5812377929688 37.96122741699219 A 100 19 0 0 1 664.5464477539062 37.96122741699219" style="fill: none; stroke: red; stroke-width: 2;"/><path id="text-path-2" d="M 765.3650512695312 211.70851135253906 A 100 17 0 0 1 991.5017700195312 211.70851135253906 A 100 17 0 0 1 765.3650512695312 211.70851135253906" style="fill: none; stroke: red; stroke-width: 2;"/><path id="path-1" d="M 765.3650512695312 211.70851135253906 A 100 17 0 0 1 991.5017700195312 211.70851135253906 A 100 17 0 0 1 765.3650512695312 211.70851135253906" style="fill: none; stroke: red; stroke-width: 2;"/><path id="path-2" d="M 778.8464965820312 213.4612274169922 A 100 18 0 0 1 988.3533935546875 213.4612274169922 A 100 18 0 0 1 778.8464965820312 213.4612274169922 Z" style="fill: none; stroke: red; stroke-width: 2;"/><path id="path-3" d="M 664.5464477539062 37.96122741699219 A 100 19 0 0 1 876.5812377929688 37.96122741699219 A 100 19 0 0 1 664.5464477539062 37.96122741699219" style="fill: none; stroke: red; stroke-width: 2;"/><path id="path-4" d="M 765.3650512695312 211.70851135253906 A 100 17 0 0 1 991.5017700195312 211.70851135253906 A 100 17 0 0 1 765.3650512695312 211.70851135253906" style="fill: none; stroke: red; stroke-width: 2;"/><path id="path-5" d="M 765.3650512695312 211.70851135253906 A 100 17 0 0 1 991.5017700195312 211.70851135253906 A 100 17 0 0 1 765.3650512695312 211.70851135253906" style="fill: none; stroke: red; stroke-width: 2;"/></defs><rect id="ee-background" x="0" y="0" width="430.40679931640625" height="263.9883728027344" style="fill: white; fill-opacity: 0; pointer-events: none;" transform="matrix(1, 0, 0, 1, 3, 0)"/>
 
 <metadata id="CorelCorpID_0Corel-Layer"/>
<g transform="matrix(1.4407773122322305, 0, 0, 1.4407773122322305, -1.040060043334961, 2.5279712677001953)"><rect id="rect-1" x="0" y="0" width="298.35333251953125" height="182.64151000976562" style="fill: white; fill-opacity: 0; pointer-events: none;"/><g transform="matrix(0.10875163972377777, 0, 0, 0.10875163972377777, -73.93880844116211, -316.3227233886719)"><g id="Layer_x0020_1">
  <metadata id="metadata-1"/>
  <path d="M 203.330002 0 H 3199.07991 A 203.330002 203.330002 0 0 1 3402.409912 203.330002 V 1489.210037 A 203.330002 203.330002 0 0 1 3199.07991 1692.540039 H 203.330002 A 203.330002 203.330002 0 0 1 0 1489.210037 V 203.330002 A 203.330002 203.330002 0 0 1 203.330002 0 Z" class="fil0 str0" transform="matrix(0.790527 -0.00280326 -0 0.963113 713.124 2927.05)" style="stroke: rgb(43, 42, 41); stroke-width: 4.07; stroke-miterlimit: 22.9256; fill: rgb(209, 149, 99); fill-opacity: 1;"/>
 </g><g id="Layer_x0020_1_0">
  <metadata id="CorelCorpID_1Corel-Layer"/>
  <path class="fil1" d="M1463.02 4030.32c33.44,7.22 69.62,14.08 78.68,7.07 0.48,-0.38 1.61,-1.25 1.61,-5.14 0,-16.55 -25.36,-17.39 -30.45,-17.39 -16.94,0 -34.96,5.66 -49.85,15.45zm1147.87 -15.45c-5.09,0 -30.45,0.84 -30.45,17.39 0,3.89 1.13,4.76 1.62,5.14 9.07,7 45.25,0.14 78.67,-7.07 -14.89,-9.79 -32.9,-15.45 -49.85,-15.45zm-1379.67 56.33c-10.81,17.07 -16.13,40.29 -16.13,70.27 0,21.1 5.26,33 9.66,39.27 4.36,6.21 9.87,9.64 15.51,9.64 12.93,0 26.68,-17.15 26.68,-48.9 0,-33.11 -15.44,-55.83 -35.73,-70.27zm1661.31 0c-20.28,14.44 -35.72,37.15 -35.72,70.27 0,31.76 13.74,48.9 26.68,48.9 5.64,0 11.14,-3.42 15.51,-9.64 4.4,-6.27 9.67,-18.17 9.67,-39.27 0,-29.97 -5.32,-53.2 -16.13,-70.27zm-830.6 398.27c-187.77,0 -358.6,-39.27 -481.03,-110.54 -115.9,-67.49 -182.38,-160.76 -182.38,-255.89 0,-23.8 6.14,-42.6 14.6,-57.22 -60.19,-12.44 -126.28,-21.66 -164.02,6.15 25.23,18.52 44.33,47.48 44.33,89.5 0,48.93 -26.76,74.53 -53.17,74.53 -14.46,0 -28.08,-7.59 -37.4,-20.83 -9.32,-13.27 -14.24,-31.83 -14.24,-53.7 0,-33.87 6.54,-61.52 19.51,-82.65 -14.35,-5.62 -29.14,-8.16 -41.58,-8.16 -44.62,0 -87.07,23.29 -128.1,45.81 -41.19,22.6 -80.11,43.95 -121.78,43.95 -70.37,0 -108.34,-50.79 -108.34,-98.59 0,-22.87 8.64,-43.88 24.33,-59.14 17.47,-17.03 42.61,-26.02 72.7,-26.02 41.39,0 69.19,33.9 69.19,65.54 0,14.11 -5.52,26.87 -15.55,35.92 -10.85,9.8 -26.64,14.98 -45.65,14.98 -7.31,0 -13.23,-5.74 -13.23,-12.81 0,-7.08 5.92,-12.82 13.23,-12.82 12.19,0 21.74,-2.79 27.6,-8.09 5.88,-5.32 7.12,-12.27 7.12,-17.16 0,-16.73 -14.84,-39.91 -42.71,-39.91 -22.87,0 -41.52,6.38 -53.92,18.46 -10.72,10.43 -16.62,25.02 -16.62,41.07 0,35.37 28.68,72.95 81.85,72.95 34.7,0 70.66,-19.73 108.72,-40.61 44.03,-24.16 89.54,-49.13 141.15,-49.13 17.49,0 38.64,4.02 58.61,13.04 1.96,-1.81 4,-3.51 6.11,-5.15 49.33,-38.16 129.9,-24.54 199.34,-9.65 2.38,-2.34 4.76,-4.49 7.09,-6.42 20.79,-17.28 48.89,-27.61 75.16,-27.61 34.05,0 56.93,17.29 56.93,43.03 0,13.4 -6.3,21.09 -11.57,25.17 -20.28,15.67 -59.89,6.97 -114.73,-5.07 -0.97,-0.21 -1.94,-0.44 -2.93,-0.64 -8.63,12.05 -15.58,28.74 -15.58,51.33 0,167.51 238.25,340.79 636.94,340.79 398.62,0 636.84,-173.29 636.84,-340.79 0,-22.59 -6.95,-39.28 -15.58,-51.33 -0.99,0.21 -1.96,0.44 -2.93,0.64 -54.84,12.05 -94.44,20.74 -114.72,5.07 -5.29,-4.08 -11.58,-11.76 -11.58,-25.17 0,-25.74 22.88,-43.03 56.93,-43.03 26.27,0 54.37,10.33 75.17,27.61 2.32,1.93 4.7,4.07 7.08,6.42 69.45,-14.9 150.01,-28.5 199.36,9.65 2.11,1.64 4.15,3.35 6.1,5.15 19.97,-9.01 41.11,-13.04 58.6,-13.04 51.62,0 97.13,24.97 141.16,49.13 38.07,20.88 74.03,40.61 108.72,40.61 53.17,0 81.85,-37.58 81.85,-72.95 0,-16.05 -5.9,-30.64 -16.62,-41.07 -12.38,-12.08 -31.04,-18.46 -53.93,-18.46 -27.87,0 -42.69,23.18 -42.69,39.91 0,4.89 1.23,11.84 7.11,17.16 5.87,5.3 15.41,8.09 27.59,8.09 7.3,0 13.23,5.74 13.23,12.82 0,7.08 -5.93,12.81 -13.23,12.81 -45.17,0 -61.19,-27.42 -61.19,-50.89 0,-31.65 27.8,-65.54 69.18,-65.54 30.09,0 55.23,8.99 72.7,26.02 15.68,15.26 24.35,36.27 24.35,59.14 0,47.8 -37.98,98.59 -108.34,98.59 -41.68,0 -80.6,-21.35 -121.78,-43.95 -41.04,-22.52 -83.47,-45.81 -128.11,-45.81 -12.44,0 -27.23,2.55 -41.57,8.16 12.95,21.13 19.5,48.78 19.5,82.65 0,21.87 -4.93,40.43 -14.26,53.7 -9.3,13.25 -22.92,20.83 -37.39,20.83 -26.41,0 -53.16,-25.6 -53.16,-74.53 0,-42.02 19.1,-70.98 44.32,-89.5 -37.75,-27.81 -103.84,-18.59 -164.02,-6.15 8.46,14.61 14.6,33.42 14.6,57.22 0,95.17 -66.38,188.45 -182.13,255.89 -122.32,71.28 -293.21,110.54 -481.17,110.54z" style="fill: rgb(167, 95, 74); fill-rule: nonzero; fill-opacity: 1;"/>
  <path class="fil1" d="M2062.21 4204.73c-222.86,0 -411.11,-69.27 -411.11,-151.25 0,-7.07 5.92,-12.81 13.22,-12.81 7.32,0 13.23,5.73 13.23,12.81 0,58.09 168.04,125.61 384.66,125.61 216.63,0 384.66,-67.52 384.66,-125.61 0,-7.07 5.93,-12.81 13.23,-12.81 7.32,0 13.24,5.73 13.24,12.81 0,81.98 -188.27,151.25 -411.13,151.25z" style="fill: rgb(167, 95, 74); fill-rule: nonzero; fill-opacity: 1;"/>
  <path class="fil1" d="M3148.57 3954.92l-2162.33 0c-7.31,0 -13.24,-5.73 -13.24,-12.82 0,-7.08 5.93,-12.82 13.24,-12.82l2162.33 0c7.31,0 13.24,5.74 13.24,12.82 0,7.08 -5.93,12.82 -13.24,12.82z" style="fill: rgb(167, 95, 74); fill-rule: nonzero; fill-opacity: 1;"/>
  <path class="fil1" d="M3143.05 3576.73l-2162.34 0c-7.31,0 -13.25,-5.73 -13.25,-12.82 0,-7.08 5.93,-12.82 13.25,-12.82l2162.34 0c7.31,0 13.23,5.74 13.23,12.82 0,7.09 -5.93,12.82 -13.23,12.82z" style="fill: rgb(167, 95, 74); fill-rule: nonzero; fill-opacity: 1;"/>
  <path class="fil1" d="M1412.12 3287.82c-16.83,30.34 -24.37,58.72 -24.37,81.83 0,62.4 45.72,90.46 78.2,90.46 23.57,0 48.75,-14.66 48.75,-55.89 0,-38.1 -33.07,-88.9 -102.57,-116.41zm1300.72 0.85c-67.59,27.54 -103.78,77.39 -103.78,115.55 0,41.22 25.18,55.89 48.76,55.89 32.47,0 78.18,-28.06 78.18,-90.46 0,-22.9 -6.94,-50.91 -23.17,-80.98zm-1574.66 127.07c1.79,39.5 24.23,83.18 83,83.18 18.1,0 26.21,-13.11 26.21,-26.1 0,-13.22 -7.81,-26.53 -21.45,-36.55 -12.86,-9.43 -37.33,-20.69 -80.88,-20.69 -2.34,0 -4.62,0.05 -6.88,0.16zm1840.54 -0.16c-43.56,0 -68.02,11.25 -80.89,20.69 -13.64,10.01 -21.45,23.33 -21.45,36.55 0,12.99 8.11,26.1 26.21,26.1 58.77,0 81.22,-43.69 83,-83.18 -2.25,-0.11 -4.54,-0.16 -6.87,-0.16zm-76.13 108.97c-30.53,0 -52.69,-21.76 -52.69,-51.74 0,-21.32 11.65,-42.08 31.94,-56.98 23.09,-16.94 56.59,-25.9 96.88,-25.9 1.8,0 3.58,0.03 5.34,0.08 -4.47,-27.7 -17.78,-54.3 -38.02,-75.17 -20.65,-21.31 -58.44,-46.69 -121.23,-46.69 -32.47,0 -61.54,4.4 -87.04,11.84 17.31,33.08 24.73,64.12 24.73,89.66 0,72.69 -53.22,116.11 -104.66,116.11 -37.46,0 -75.25,-25.21 -75.25,-81.54 0,-51.25 44.67,-106.42 117.08,-137.25 -23.66,-35.13 -60.1,-71.97 -112.78,-105.93 -86.75,-55.91 -248.24,-122.58 -524.99,-122.58 -373.75,0 -561.96,120.14 -635.7,226.8 78.57,32.15 115,92.2 115,138.97 0,56.32 -37.79,81.54 -75.23,81.54 -25.78,0 -51.73,-11.13 -71.18,-30.57 -15.28,-15.24 -33.48,-42.45 -33.48,-85.55 0,-25.7 7.57,-57 25.27,-90.36 -25.28,-7.01 -54.44,-11.13 -87.6,-11.13 -62.78,0 -100.57,25.38 -121.22,46.69 -20.25,20.87 -33.55,47.48 -38.02,75.17 1.76,-0.05 3.54,-0.08 5.34,-0.08 40.29,0 73.78,8.97 96.87,25.9 20.3,14.9 31.95,35.66 31.95,56.98 0,29.98 -22.16,51.74 -52.69,51.74 -71.67,0 -105.87,-51.31 -109.3,-104.91 -27.35,6.96 -48.42,22.02 -70.4,37.73 -33.04,23.61 -70.49,50.36 -132.55,50.36 -58.49,0 -89.08,-43.95 -89.08,-87.36 0,-42.21 29.09,-84.91 84.69,-84.91 41.15,0 63.35,27.19 63.35,52.79 0,12.73 -5.34,24.42 -15.03,32.88 -10.25,8.94 -24.67,13.67 -41.69,13.67 -7.32,0 -13.24,-5.74 -13.24,-12.82 0,-7.09 5.92,-12.82 13.24,-12.82 10.37,0 18.65,-2.44 23.95,-7.07 5.2,-4.55 6.29,-10.05 6.29,-13.84 0,-13.51 -12.66,-27.15 -36.87,-27.15 -40.22,0 -58.22,29.76 -58.22,59.26 0,29.73 19.6,61.72 62.61,61.72 53.35,0 84.19,-22.04 116.83,-45.35 25.19,-18 51.03,-36.47 86.83,-43.66 4.07,-35.26 20.28,-69.43 45.84,-95.8 24.22,-24.99 68.27,-54.77 140.52,-54.77 38.63,0 72.34,5.06 101.35,13.66 25.65,-38.96 65.3,-79.54 122.76,-116.49 89.99,-57.87 256.53,-126.86 538.83,-126.86 283.38,0 449.88,68.99 539.67,126.86 57.96,37.37 97.68,78.52 123.17,117.97 29.9,-9.56 63.58,-15.14 100.09,-15.14 72.25,0 116.31,29.78 140.53,54.77 25.56,26.37 41.76,60.53 45.84,95.8 35.8,7.2 61.65,25.67 86.84,43.66 32.65,23.31 63.47,45.35 116.81,45.35 43.03,0 62.6,-31.98 62.6,-61.72 0,-29.5 -17.97,-59.26 -58.2,-59.26 -24.19,0 -36.86,13.64 -36.86,27.15 0,3.8 1.08,9.3 6.29,13.84 5.29,4.63 13.58,7.07 23.95,7.07 7.31,0 13.23,5.73 13.23,12.82 0,7.08 -5.93,12.82 -13.23,12.82 -17.02,0 -31.44,-4.74 -41.69,-13.67 -9.69,-8.46 -15.03,-20.15 -15.03,-32.88 0,-25.6 22.19,-52.79 63.35,-52.79 55.61,0 84.7,42.7 84.7,84.91 0,43.41 -30.61,87.36 -89.1,87.36 -62.05,0 -99.51,-26.75 -132.54,-50.36 -21.97,-15.71 -43.05,-30.77 -70.4,-37.73 -3.44,53.6 -37.62,104.91 -109.3,104.91z" style="fill: rgb(167, 95, 74); fill-rule: nonzero; fill-opacity: 1;"/>
  <path class="fil1" d="M2459.76 3438.11c-7.3,0 -13.23,-5.75 -13.23,-12.82 0,-58.09 -168.01,-125.61 -384.64,-125.61 -216.63,0 -384.64,67.52 -384.64,125.61 0,7.07 -5.94,12.82 -13.24,12.82 -7.32,0 -13.25,-5.75 -13.25,-12.82 0,-81.99 188.27,-151.25 411.13,-151.25 222.86,0 411.13,69.26 411.13,151.25 0,7.07 -5.93,12.82 -13.25,12.82z" style="fill: rgb(167, 95, 74); fill-rule: nonzero; fill-opacity: 1;"/>
  <path class="fil2" d="M2086.49 3431.54c0,-12.71 -10.64,-23.01 -23.78,-23.01 -13.13,0 -23.76,10.3 -23.76,23.01 0,12.72 10.63,23.03 23.76,23.03 13.13,0 23.78,-10.31 23.78,-23.03z" style="fill: rgb(255, 247, 178); fill-rule: nonzero; fill-opacity: 1;"/>
  <path d="M 1720.8800048828125 3431.5400390625 L 1864.68994140625 3425.2099609375 L 2008.52001953125 3418.8798828125 L 2008.52001953125 3444.219970703125 L 1864.68994140625 3437.8798828125 Z" class="fil2" style="fill: rgb(255, 247, 178); fill-rule: nonzero; fill-opacity: 1;"/>
  <path d="M 2402.8798828125 3431.5400390625 L 2259.070068359375 3425.2099609375 L 2115.239990234375 3418.8798828125 L 2115.239990234375 3444.219970703125 L 2259.070068359375 3437.8798828125 Z" class="fil2" style="fill: rgb(255, 247, 178); fill-rule: nonzero; fill-opacity: 1;"/>
  <path class="fil2" d="M1158.94 3847.26c-17.7,0 -31.6,-3.77 -41.82,-11.27 -10.17,-7.54 -15.28,-17.85 -15.28,-31.03 0,-15.39 6.59,-32.88 19.81,-52.49 13.22,-19.57 30.87,-37.61 52.88,-54.08 17.49,-13.15 35.5,-23.43 54.04,-30.84 18.59,-7.37 35.45,-11.08 50.56,-11.08 12.33,0 21.91,2.14 28.71,6.42 6.8,4.28 10.16,10.38 10.16,18.29 0,6.99 -2.74,13.66 -8.16,20.05 -5.42,6.42 -13.38,12.29 -23.76,17.66 -5.95,3 -12.37,5.49 -19.22,7.54 -6.9,2.01 -12.17,3.03 -15.91,3.03 -2.84,0 -5.9,-1.34 -9.06,-4.05 -3.21,-2.71 -4.79,-5.14 -4.79,-7.25 0,-1.56 3.27,-3.06 9.8,-4.53 6.53,-1.47 12.01,-3 16.44,-4.63 8.64,-3.19 15.27,-7.09 19.91,-11.69 4.63,-4.6 6.95,-9.51 6.95,-14.75 0,-3.57 -1.16,-6.26 -3.48,-8.05 -2.32,-1.82 -5.79,-2.71 -10.43,-2.71 -8.85,0 -19.54,3.29 -32.13,9.9 -12.54,6.61 -25.65,15.84 -39.35,27.68 -19.96,17.4 -35.5,34.61 -46.56,51.59 -11.06,16.98 -16.59,31.89 -16.59,44.73 0,6.74 2,11.81 5.96,15.2 3.95,3.42 9.85,5.11 17.7,5.11 10.37,0 21.12,-2.36 32.24,-7.06 11.11,-4.73 22.33,-11.68 33.55,-20.91 1.84,-1.44 3.95,-3.42 6.32,-5.97 3.37,-3.54 6.32,-5.33 8.9,-5.33 2.9,0 6.06,1.05 9.59,3.19 3.47,2.11 5.21,4.05 5.21,5.78 0,1.37 -1.42,3.57 -4.32,6.54 -2.9,3 -6.95,6.55 -12.17,10.6 -14.75,11.21 -29.39,19.76 -43.93,25.64 -14.59,5.84 -28.5,8.78 -41.77,8.78z" style="fill: rgb(255, 247, 178); fill-rule: nonzero; fill-opacity: 1;"/>
  <path id="_1" class="fil2" d="M1397.28 3745.01c-5.16,-0.48 -9.11,-1.66 -11.8,-3.45 -2.69,-1.82 -4.01,-4.25 -4.01,-7.31 0,-4.41 2.06,-8.08 6.16,-10.98 4.16,-2.91 9.38,-4.34 15.64,-4.34 6.9,0 12.27,1.69 16.07,5.04 3.85,3.38 5.74,8.08 5.74,14.14 0,7.54 -2,15.23 -5.95,23.05 -3.95,7.82 -9.53,15 -16.75,21.58 -7.64,6.96 -15.8,12.2 -24.55,15.64 -8.74,3.48 -18.17,5.2 -28.29,5.2 -7.32,0 -13.64,-0.58 -19.07,-1.72 -5.42,-1.18 -10.01,-2.94 -13.85,-5.3 -6.74,2.04 -13.8,3.64 -21.07,4.72 -7.22,1.09 -15.17,1.72 -23.81,1.92l6.17 -12.64c5.63,-0.19 10.69,-0.64 15.17,-1.31 4.48,-0.7 8.53,-1.66 12.11,-2.91 -1.21,-2.07 -2.16,-4.21 -2.74,-6.51 -0.63,-2.27 -0.95,-4.69 -0.95,-7.25 0,-6.93 2.32,-14.08 7,-21.49 4.69,-7.44 11.11,-14.02 19.23,-19.73 7.11,-5.14 15.59,-9.29 25.49,-12.45 9.9,-3.19 19.07,-4.79 27.66,-4.79 2.27,0 4,0.29 5.32,0.89 1.26,0.58 1.9,1.37 1.9,2.4 0,1.37 -2.48,3.54 -7.48,6.48 -5,2.97 -8.8,5.46 -11.48,7.47 -10.59,8.01 -18.75,16.19 -24.39,24.42 -5.64,8.27 -8.48,16.03 -8.48,23.24 0,3.45 1.26,6.13 3.79,8.04 2.53,1.95 6,2.91 10.43,2.91 10.59,0 20.91,-4.6 31.02,-13.79 10.12,-9.19 15.33,-19.6 15.75,-31.19z" style="fill: rgb(255, 247, 178); fill-rule: nonzero; fill-opacity: 1;"/>
  <path id="_2" class="fil2" d="M1537.55 3745.01c-5.16,-0.48 -9.12,-1.66 -11.8,-3.45 -2.69,-1.82 -4.01,-4.25 -4.01,-7.31 0,-4.41 2.06,-8.08 6.16,-10.98 4.16,-2.91 9.38,-4.34 15.65,-4.34 6.9,0 12.27,1.69 16.07,5.04 3.84,3.38 5.74,8.08 5.74,14.14 0,7.54 -2,15.23 -5.95,23.05 -3.95,7.82 -9.53,15 -16.75,21.58 -7.64,6.96 -15.8,12.2 -24.54,15.64 -8.74,3.48 -18.17,5.2 -28.29,5.2 -7.32,0 -13.64,-0.58 -19.07,-1.72 -5.42,-1.18 -10.01,-2.94 -13.85,-5.3 -6.74,2.04 -13.8,3.64 -21.07,4.72 -7.22,1.09 -15.17,1.72 -23.81,1.92l6.17 -12.64c5.64,-0.19 10.69,-0.64 15.17,-1.31 4.47,-0.7 8.53,-1.66 12.11,-2.91 -1.21,-2.07 -2.16,-4.21 -2.74,-6.51 -0.63,-2.27 -0.95,-4.69 -0.95,-7.25 0,-6.93 2.32,-14.08 7,-21.49 4.68,-7.44 11.11,-14.02 19.23,-19.73 7.11,-5.14 15.59,-9.29 25.49,-12.45 9.9,-3.19 19.07,-4.79 27.66,-4.79 2.26,0 4,0.29 5.32,0.89 1.26,0.58 1.9,1.37 1.9,2.4 0,1.37 -2.47,3.54 -7.48,6.48 -5,2.97 -8.79,5.46 -11.48,7.47 -10.59,8.01 -18.75,16.19 -24.38,24.42 -5.64,8.27 -8.48,16.03 -8.48,23.24 0,3.45 1.26,6.13 3.79,8.04 2.53,1.95 6,2.91 10.43,2.91 10.59,0 20.91,-4.6 31.02,-13.79 10.11,-9.19 15.33,-19.6 15.75,-31.19z" style="fill: rgb(255, 247, 178); fill-rule: nonzero; fill-opacity: 1;"/>
  <path id="_3" class="fil2" d="M1552.3 3803.21l5.9 -12.64c10.33,-0.38 19.07,-3.16 26.13,-8.33 7.06,-5.17 13.8,-13.86 20.17,-26.08l37.92 -73.97c1.22,-2.46 2.74,-5.59 4.48,-9.45 4,-9.16 12.64,-13.76 25.97,-13.76 6.06,0 10.69,0.51 13.8,1.53 3.16,1.06 4.74,2.59 4.74,4.63 0,1.37 -1.69,4.66 -5.11,9.83 -2.48,3.74 -4.42,6.77 -5.9,9.07l-40.93 69.6c2.48,-0.61 4.95,-1.09 7.37,-1.44 2.48,-0.35 5.01,-0.51 7.59,-0.51 1.74,0 4.79,0.13 9.11,0.38 0.58,0 1.1,0.03 1.53,0.1 4.42,-2.81 8.17,-5.97 11.17,-9.51 3,-3.51 5.53,-7.79 7.58,-12.77 0.74,-1.63 1.42,-3.77 2.16,-6.45 1.53,-5.68 5.74,-8.52 12.64,-8.52 6.27,0 10.8,0.61 13.59,1.79 2.79,1.18 4.16,3.06 4.16,5.68 0,4.69 -3.53,10.41 -10.64,17.18 -7.11,6.77 -15.64,12.04 -25.65,15.77 4.37,1.44 7.37,2.97 9.06,4.57 1.74,1.63 2.58,3.8 2.58,6.55 0,1.15 -0.63,3.51 -1.9,7.12 -1.26,3.61 -1.9,6.61 -1.9,8.97 0,2.81 1.37,4.73 4.11,5.81 2.74,1.05 8.75,1.82 18.01,2.33l-6 12.55c-18.33,0 -31.23,-1.12 -38.71,-3.38 -7.48,-2.23 -11.22,-6.07 -11.22,-11.49 0,-1.63 0.74,-4.95 2.16,-9.99 1.42,-5.01 2.48,-9.1 3.21,-12.29 -3.16,1.18 -6.22,2.04 -9.17,2.62 -2.95,0.54 -5.9,0.83 -8.85,0.83 -1.32,0 -2.84,-0.03 -4.48,-0.13 -1.63,-0.1 -3.48,-0.26 -5.53,-0.45 -3,5.68 -6,12 -9.12,18.93 -3.05,6.93 -5,10.89 -5.85,11.91 -1.16,1.44 -3.16,2.43 -6.01,3 -2.89,0.54 -7.74,0.83 -14.48,0.83 -4.11,0 -7.01,-0.22 -8.64,-0.7 -1.63,-0.48 -2.48,-1.31 -2.48,-2.49 0,-0.61 0.26,-1.44 0.84,-2.49 0.58,-1.02 1.47,-2.33 2.69,-3.86 -4.48,2.81 -9.75,4.98 -15.75,6.48 -6,1.53 -12.8,2.43 -20.39,2.68z" style="fill: rgb(255, 247, 178); fill-rule: nonzero; fill-opacity: 1;"/>
  <path id="_4" class="fil2" d="M1704.36 3803.21l5.9 -12.64c12.11,-0.26 22.49,-4.31 31.08,-12.2 8.58,-7.89 16.7,-20.88 24.33,-38.98 1.1,-2.87 2.47,-6.51 4,-10.95 3.11,-9.42 13.22,-14.11 30.44,-14.11 4.01,0 7.06,0.35 9.16,1.09 2.11,0.7 3.16,1.75 3.16,3.13 0,1.85 -1.79,5.52 -5.32,10.95 -3.53,5.43 -6.06,9.61 -7.58,12.61l-14.8 27.14 -0.63 1.12c-3.69,6.55 -5.53,10.79 -5.53,12.74 0,2.62 1.42,4.44 4.32,5.46 2.84,1.02 8.8,1.69 17.7,2.01l-5.85 12.64 -5.37 0c-13.28,0 -23.23,-1.05 -29.92,-3.13 -6.64,-2.11 -10.59,-5.46 -11.8,-10.09 -6.11,4.25 -12.64,7.47 -19.7,9.61 -7.06,2.17 -14.96,3.35 -23.6,3.61zm104.29 -117.42c-5.95,0 -10.53,-0.99 -13.8,-2.94 -3.21,-1.98 -4.85,-4.76 -4.85,-8.36 0,-4.69 2.37,-8.65 7.16,-11.85 4.79,-3.22 10.48,-4.82 17.17,-4.82 5.48,0 9.95,1.08 13.59,3.29 3.58,2.17 5.37,4.98 5.37,8.4 0,4.63 -2.37,8.49 -7.11,11.62 -4.69,3.1 -10.53,4.66 -17.54,4.66z" style="fill: rgb(255, 247, 178); fill-rule: nonzero; fill-opacity: 1;"/>
  <path id="_5" class="fil2" d="M1870.96 3774.09c10.69,-4.25 19.7,-9.96 26.97,-17.18 7.32,-7.18 10.96,-13.47 10.96,-18.84 0,-2.68 -1.05,-4.73 -3.21,-6.13 -2.16,-1.41 -5.32,-2.11 -9.43,-2.11 -8.53,0 -16.12,3.03 -22.7,9.13 -6.59,6.07 -9.85,13.12 -9.85,21.17 0,3.07 0.58,5.72 1.68,7.92 1.16,2.2 3,4.22 5.58,6.03zm-15.9 19.76c-9.96,2.87 -19.96,5.08 -29.97,6.64 -10.06,1.56 -20.12,2.46 -30.34,2.71l6.22 -12.64c7.06,-0.32 13.64,-0.89 19.65,-1.79 6,-0.86 11.85,-2.04 17.49,-3.54 -3.9,-3.13 -6.74,-6.67 -8.59,-10.66 -1.84,-3.99 -2.79,-8.68 -2.79,-14.05 0,-12.45 7,-23.31 21.07,-32.53 14.06,-9.23 30.65,-13.86 49.78,-13.86 10.69,0 19.17,1.95 25.39,5.84 6.21,3.9 9.32,9.23 9.32,15.96 0,7.34 -4.48,15.48 -13.38,24.36 -8.9,8.88 -20.76,16.73 -35.61,23.53 4.32,2.43 9.01,4.15 14.12,5.2 5.11,1.02 11.38,1.53 18.81,1.53l2.16 0 -6.06 12.64 -4.21 0c-11.48,0 -21.65,-0.76 -30.34,-2.3 -8.75,-1.53 -16.33,-3.9 -22.7,-7.06z" style="fill: rgb(255, 247, 178); fill-rule: nonzero; fill-opacity: 1;"/>
  <path id="_6" class="fil2" d="M2151.39 3712.95c5.27,0.32 10.22,1.02 14.8,2.11 4.64,1.09 9.16,2.62 13.59,4.63 11.22,-5.04 19.91,-10.38 25.97,-15.96 6.06,-5.59 9.11,-10.89 9.11,-15.87 0,-4.76 -1.84,-8.4 -5.58,-10.92 -3.69,-2.52 -9.11,-3.8 -16.17,-3.8 -4.95,0 -10.01,0.64 -15.07,1.92 -5.11,1.28 -10.32,3.19 -15.7,5.78 -1.32,5.11 -2.9,10.34 -4.69,15.71 -1.79,5.4 -3.9,10.86 -6.27,16.41zm-32.23 -3.39c-9.59,5.24 -18.49,11.62 -26.65,19.13 -8.17,7.53 -16.17,16.57 -24.02,27.17 -4.79,6.8 -8.43,12.71 -10.85,17.75 -2.42,5.01 -3.64,9.07 -3.64,12.2 0,1.79 0.58,3.1 1.69,3.93 1.16,0.8 2.9,1.21 5.27,1.21 7.59,0 16.49,-7.06 26.6,-21.2 10.17,-14.11 20.7,-34.16 31.6,-60.18zm-7.27 71.96c5.27,0.86 9.85,1.5 13.9,1.92 4.01,0.41 7.58,0.61 10.8,0.61 12.75,0 23.23,-2.97 31.5,-8.88 8.22,-5.91 12.33,-13.34 12.33,-22.32 0,-3.48 -0.79,-6.74 -2.32,-9.71 -1.53,-3 -4,-5.97 -7.43,-8.88 -2.74,0.22 -5.37,0.41 -7.8,0.54 -2.37,0.13 -4.53,0.19 -6.37,0.19 -1.95,0 -4.11,-0.03 -6.48,-0.13 -2.37,-0.1 -4.95,-0.26 -7.74,-0.45 -4.21,9.67 -8.85,18.42 -13.91,26.27 -5,7.82 -10.54,14.78 -16.49,20.82zm-13.27 14.65c-6.37,5.36 -13.33,9.45 -20.86,12.32 -7.53,2.84 -15.22,4.28 -23.18,4.28 -9.59,0 -16.85,-1.98 -21.86,-5.97 -5,-3.99 -7.48,-9.8 -7.48,-17.4 0,-8.43 3.37,-18.1 10.11,-28.99 6.74,-10.92 16.22,-21.97 28.5,-33.11 9.9,-9 20.54,-17.05 32.02,-24.23 11.48,-7.18 22.28,-12.58 32.39,-16.19 0.26,-1.63 0.63,-3.83 1.05,-6.64 1.42,-10.44 3.85,-16.57 7.27,-18.45 2.06,-1.18 5.9,-2.36 11.59,-3.54 5.64,-1.18 10.27,-1.79 13.86,-1.79 1.58,0 2.9,0.41 4,1.21 1.16,0.83 1.74,1.75 1.74,2.81 0,0.58 -0.1,1.18 -0.26,1.88 -0.16,0.67 -0.32,1.44 -0.53,2.23 6.16,-2.62 12.69,-4.63 19.6,-6.03 6.9,-1.4 13.69,-2.11 20.33,-2.11 12.96,0 23.49,2.74 31.55,8.2 8.06,5.46 12.11,12.55 12.11,21.3 0,9.36 -4.74,17.75 -14.27,25.19 -9.48,7.41 -23.28,13.41 -41.35,17.97 6.85,5.36 11.91,10.7 15.22,16.03 3.32,5.33 5.01,10.73 5.01,16.15 0,11.72 -6.59,21.68 -19.75,29.91 -13.17,8.24 -29.34,12.36 -48.57,12.36 -8.21,0 -16.27,-0.61 -24.12,-1.82 -7.85,-1.21 -15.91,-3.1 -24.12,-5.59z" style="fill: rgb(255, 247, 178); fill-rule: nonzero; fill-opacity: 1;"/>
  <path id="_7" class="fil2" d="M2361.86 3733.86c-2.79,-1.31 -5.53,-2.27 -8.27,-2.91 -2.74,-0.61 -5.48,-0.93 -8.27,-0.93 -6.11,0 -13.06,1.6 -20.96,4.79 -7.85,3.16 -15.38,7.5 -22.6,13 -6.59,5.04 -11.85,10.41 -15.7,16.06 -3.84,5.65 -5.79,10.6 -5.79,14.85 0,3.03 0.89,5.3 2.63,6.77 1.74,1.47 4.42,2.2 8.01,2.2 10.11,0 21.18,-4.57 33.23,-13.67 12.06,-9.1 24.6,-22.51 37.71,-40.16zm-15.75 35.47c-11.01,11.88 -21.91,20.53 -32.71,26.02 -10.8,5.49 -22.39,8.24 -34.76,8.24 -5.85,0 -10.96,-0.51 -15.33,-1.5 -4.37,-0.99 -7.8,-2.46 -10.27,-4.41 -5.16,1.69 -11.01,2.97 -17.59,3.9 -6.58,0.89 -14.33,1.44 -23.18,1.63l6.22 -12.64c5.63,-0.19 10.69,-0.61 15.17,-1.31 4.48,-0.67 8.53,-1.63 12.12,-2.87 -0.37,-1.31 -0.69,-2.68 -0.89,-4.09 -0.21,-1.37 -0.32,-2.91 -0.32,-4.53 0,-5.17 1.85,-10.82 5.53,-16.98 3.74,-6.13 8.9,-12.16 15.59,-18.1 10.32,-8.97 21.7,-15.8 34.18,-20.53 12.54,-4.69 25.44,-7.06 38.82,-7.06 6.69,0 12.43,0.61 17.28,1.79 4.84,1.18 9.43,3.06 13.75,5.68l2.16 -4.22c1.32,-2.58 2.68,-4.21 4,-4.88 1.32,-0.7 3.27,-1.05 5.85,-1.05 7.11,0 13.32,0.73 18.59,2.2 5.32,1.5 7.95,3.22 7.95,5.24 0,0.64 -2.21,3.54 -6.64,8.78 -4.42,5.27 -8.32,10.25 -11.69,14.97 -6.79,9.42 -11.9,17.49 -15.38,24.2 -3.42,6.7 -5.16,11.84 -5.16,15.45 0,2.52 1.26,4.25 3.85,5.2 2.58,0.96 8.43,1.69 17.59,2.2l-6 12.55 -2.79 0c-16.12,0 -27.49,-1.02 -34.08,-3.1 -6.59,-2.04 -9.85,-5.56 -9.85,-10.47 0,-2.17 0.63,-4.85 1.84,-8.04 1.26,-3.16 3.32,-7.25 6.16,-12.26z" style="fill: rgb(255, 247, 178); fill-rule: nonzero; fill-opacity: 1;"/>
  <path id="_8" class="fil2" d="M2384.77 3803.21l5.9 -12.64c10.33,-0.38 19.07,-3.16 26.13,-8.33 7.06,-5.17 13.8,-13.86 20.17,-26.08l37.92 -73.97c1.22,-2.46 2.74,-5.59 4.48,-9.45 4,-9.16 12.64,-13.76 25.97,-13.76 6.06,0 10.69,0.51 13.8,1.53 3.16,1.06 4.74,2.59 4.74,4.63 0,1.37 -1.69,4.66 -5.11,9.83 -2.48,3.74 -4.42,6.77 -5.9,9.07l-40.93 69.6c2.48,-0.61 4.95,-1.09 7.37,-1.44 2.48,-0.35 5.01,-0.51 7.59,-0.51 1.74,0 4.79,0.13 9.11,0.38 0.58,0 1.1,0.03 1.53,0.1 4.42,-2.81 8.16,-5.97 11.17,-9.51 3,-3.51 5.53,-7.79 7.58,-12.77 0.74,-1.63 1.42,-3.77 2.16,-6.45 1.53,-5.68 5.74,-8.52 12.64,-8.52 6.27,0 10.8,0.61 13.59,1.79 2.79,1.18 4.16,3.06 4.16,5.68 0,4.69 -3.53,10.41 -10.64,17.18 -7.11,6.77 -15.64,12.04 -25.65,15.77 4.37,1.44 7.37,2.97 9.06,4.57 1.74,1.63 2.58,3.8 2.58,6.55 0,1.15 -0.63,3.51 -1.9,7.12 -1.26,3.61 -1.9,6.61 -1.9,8.97 0,2.81 1.37,4.73 4.11,5.81 2.74,1.05 8.75,1.82 18.01,2.33l-6 12.55c-18.33,0 -31.23,-1.12 -38.71,-3.38 -7.48,-2.23 -11.22,-6.07 -11.22,-11.49 0,-1.63 0.74,-4.95 2.16,-9.99 1.42,-5.01 2.48,-9.1 3.21,-12.29 -3.16,1.18 -6.22,2.04 -9.17,2.62 -2.95,0.54 -5.9,0.83 -8.85,0.83 -1.32,0 -2.84,-0.03 -4.48,-0.13 -1.63,-0.1 -3.48,-0.26 -5.53,-0.45 -3,5.68 -6,12 -9.12,18.93 -3.05,6.93 -5,10.89 -5.85,11.91 -1.16,1.44 -3.16,2.43 -6.01,3 -2.89,0.54 -7.74,0.83 -14.48,0.83 -4.11,0 -7.01,-0.22 -8.64,-0.7 -1.63,-0.48 -2.48,-1.31 -2.48,-2.49 0,-0.61 0.26,-1.44 0.84,-2.49 0.58,-1.02 1.47,-2.33 2.69,-3.86 -4.48,2.81 -9.75,4.98 -15.75,6.48 -6,1.53 -12.8,2.43 -20.39,2.68z" style="fill: rgb(255, 247, 178); fill-rule: nonzero; fill-opacity: 1;"/>
  <path id="_9" class="fil2" d="M2613 3774.09c10.7,-4.25 19.7,-9.96 26.97,-17.18 7.32,-7.18 10.96,-13.47 10.96,-18.84 0,-2.68 -1.05,-4.73 -3.21,-6.13 -2.16,-1.41 -5.32,-2.11 -9.43,-2.11 -8.53,0 -16.12,3.03 -22.7,9.13 -6.59,6.07 -9.85,13.12 -9.85,21.17 0,3.07 0.58,5.72 1.68,7.92 1.16,2.2 3,4.22 5.58,6.03zm-15.9 19.76c-9.96,2.87 -19.96,5.08 -29.97,6.64 -10.06,1.56 -20.12,2.46 -30.34,2.71l6.22 -12.64c7.06,-0.32 13.64,-0.89 19.65,-1.79 6,-0.86 11.85,-2.04 17.49,-3.54 -3.9,-3.13 -6.74,-6.67 -8.59,-10.66 -1.84,-3.99 -2.79,-8.68 -2.79,-14.05 0,-12.45 7,-23.31 21.07,-32.53 14.06,-9.23 30.65,-13.86 49.78,-13.86 10.69,0 19.17,1.95 25.39,5.84 6.21,3.9 9.32,9.23 9.32,15.96 0,7.34 -4.48,15.48 -13.38,24.36 -8.9,8.88 -20.75,16.73 -35.61,23.53 4.32,2.43 9.01,4.15 14.12,5.2 5.11,1.02 11.38,1.53 18.81,1.53l2.16 0 -6.06 12.64 -4.21 0c-11.48,0 -21.65,-0.76 -30.34,-2.3 -8.75,-1.53 -16.33,-3.9 -22.7,-7.06z" style="fill: rgb(255, 247, 178); fill-rule: nonzero; fill-opacity: 1;"/>
  <path id="_10" class="fil2" d="M2654.08 3803.21l6 -12.64c12.75,-1.31 24.44,-6.58 35.02,-15.77 10.59,-9.19 22.81,-25.22 36.71,-48.05 -2.37,-1.44 -4.11,-3.03 -5.27,-4.79 -1.11,-1.76 -1.69,-3.74 -1.69,-5.97 0,-4.5 2.05,-8.24 6.11,-11.21 4.05,-2.97 9.16,-4.44 15.33,-4.44 5.69,0 10.16,0.93 13.43,2.81 3.32,1.88 4.95,4.38 4.95,7.47 0,1.5 -0.27,2.9 -0.79,4.18 -0.47,1.28 -1.31,2.59 -2.47,3.9 5.27,1.98 12.06,4.37 20.39,7.18 15.12,4.95 22.7,9.83 22.7,14.72 0,4.12 -4.11,11.37 -12.33,21.81 -8.22,10.41 -12.32,17.49 -12.32,21.23 0,2.23 1.42,3.83 4.21,4.72 2.84,0.89 10.16,1.66 21.96,2.3l-6.01 12.55 -4.63 0c-18.54,0 -31.87,-1.31 -39.98,-3.89 -8.16,-2.59 -12.22,-6.77 -12.22,-12.58 0,-5.17 3.9,-12.87 11.69,-23.08 7.74,-10.18 11.64,-16.73 11.64,-19.6 0,-1.37 -1.31,-2.78 -4,-4.25 -2.69,-1.47 -7.22,-3.32 -13.59,-5.59 -13.8,24.17 -28.02,41.53 -42.66,52.1 -14.64,10.57 -32.03,16.19 -52.2,16.89z" style="fill: rgb(255, 247, 178); fill-rule: nonzero; fill-opacity: 1;"/>
  <path id="_11" class="fil2" d="M2845.91 3795.61c-7.8,2.2 -15.59,3.96 -23.28,5.27 -7.69,1.31 -15.12,2.08 -22.34,2.33l6.06 -12.64c6.16,-0.19 12.01,-0.8 17.59,-1.79 5.59,-0.99 11.11,-2.46 16.54,-4.34 0.21,-5.97 1.58,-12.45 4.16,-19.38 2.58,-6.96 6.69,-15.16 12.33,-24.65 6.9,-11.3 12.06,-18.58 15.48,-21.9 3.43,-3.29 7.01,-4.95 10.7,-4.95 8.06,0 14.12,0.58 18.22,1.72 4.11,1.15 6.16,2.91 6.16,5.2 0,1.31 -2.21,4.79 -6.63,10.44 -4.42,5.62 -7.85,10.18 -10.22,13.7 -5.53,8.11 -9.48,14.68 -11.74,19.76 -2.27,5.08 -3.37,9.58 -3.37,13.5 0,2.4 0.79,4.15 2.37,5.33 1.63,1.18 4.06,1.79 7.37,1.79 7.58,0 16.33,-3.45 26.12,-10.38 9.85,-6.93 18.91,-16.12 27.29,-27.58 4.11,-5.56 8.11,-12.23 12.01,-20.02 4.11,-8.33 9.27,-12.52 15.43,-12.52 6.16,0 11.48,0.67 15.91,2.01 4.42,1.34 6.63,3.03 6.63,5.11 0,1.18 -1.21,3.51 -3.69,6.99 -1.84,2.55 -3.26,4.63 -4.16,6.16l-34.92 58.3c5.58,-0.73 15.22,-1.53 29.02,-2.33 1.26,-0.06 2.21,-0.13 2.95,-0.19l-6 12.64c-9.58,0.58 -16.85,1.12 -21.86,1.63 -5,0.54 -9.37,1.15 -13.22,1.85 -6.95,15.01 -14.85,26.18 -23.65,33.46 -8.8,7.31 -18.65,10.95 -29.65,10.95 -5.32,0 -9.43,-0.8 -12.27,-2.43 -2.79,-1.63 -4.22,-3.99 -4.22,-7.12 0,-5.78 3.69,-11.52 11.01,-17.21 7.32,-5.65 17.17,-10.22 29.49,-13.63 5.01,-7.57 9.69,-14.81 14.01,-21.77 4.32,-6.96 8.37,-13.76 12.22,-20.37 -10.9,12.1 -21.6,20.97 -32.08,26.59 -10.48,5.62 -21.49,8.43 -32.97,8.43 -5.16,0 -9.9,-0.73 -14.22,-2.23 -4.27,-1.5 -7.16,-3.42 -8.58,-5.75z" style="fill: rgb(255, 247, 178); fill-rule: nonzero; fill-opacity: 1;"/>
  <path class="fil2" d="M1906.96 4060.32c0.1,2.74 0.21,5.24 0.35,7.47 0.14,2.25 0.3,4.43 0.5,6.55l-3.2 0c-0.39,-4 -1.4,-6.7 -3.04,-8.11 -1.64,-1.41 -4.7,-2.11 -9.17,-2.11l-11.14 0 0 18.93 4.61 0c3.17,0 5.15,-0.45 5.91,-1.37 0.78,-0.91 1.29,-3.08 1.52,-6.49l3.2 0c-0.03,0.44 -0.05,1.09 -0.08,1.95 -0.16,3.9 -0.25,6.58 -0.25,8.05 0,1.54 0.09,4.33 0.25,8.37 0.03,0.93 0.05,1.64 0.08,2.13l-3.2 0c-0.17,-3.65 -0.75,-6.11 -1.76,-7.34 -1,-1.25 -2.9,-1.87 -5.68,-1.87l-4.61 0 0 22 13.46 0c4.71,0 7.91,-0.82 9.63,-2.46 1.72,-1.63 2.83,-4.81 3.31,-9.53l3.2 0c-0.2,2.56 -0.36,5.12 -0.51,7.69 -0.15,2.57 -0.29,5.15 -0.4,7.74l-47.37 0 0 -3.36c2.74,0 4.47,-0.36 5.22,-1.08 0.73,-0.71 1.1,-2.43 1.1,-5.13l0 -32.14c0,-2.7 -0.37,-4.4 -1.13,-5.12 -0.75,-0.7 -2.48,-1.07 -5.2,-1.09l0 -3.36 10.1 0c6.3,0 12.26,-0.02 17.9,-0.08 5.64,-0.06 11.11,-0.14 16.38,-0.23z" style="fill: rgb(255, 247, 178); fill-rule: nonzero; fill-opacity: 1;"/>
  <path id="_1_0" class="fil2" d="M1952.31 4064.34l0.58 -3.06 2.68 0 0 7.08 0 5.27 0 3 -2.9 0c-0.39,-4.12 -1.75,-7.33 -4.07,-9.63 -2.33,-2.3 -5.35,-3.44 -9.09,-3.44 -2.76,0 -4.98,0.74 -6.66,2.2 -1.67,1.46 -2.5,3.39 -2.5,5.8 0,2.05 0.59,3.69 1.78,4.92 1.18,1.24 4.12,2.69 8.79,4.37 7.19,2.54 11.86,4.95 14.01,7.24 2.16,2.3 3.24,5.36 3.24,9.19 0,4.65 -1.79,8.37 -5.35,11.13 -3.57,2.77 -8.38,4.15 -14.43,4.15 -3.16,0 -6.06,-0.46 -8.67,-1.38 -2.61,-0.92 -5.04,-2.33 -7.3,-4.25l-0.92 3.9 -2.6 0 0 -3.7 0 -5.51 0 -4.5 0 -3.7 3.05 0c0.34,4.87 1.88,8.7 4.65,11.51 2.75,2.8 6.34,4.2 10.75,4.2 2.78,0 4.95,-0.7 6.51,-2.09 1.56,-1.39 2.34,-3.32 2.34,-5.76 0,-2.17 -0.61,-3.88 -1.84,-5.17 -1.23,-1.27 -3.64,-2.56 -7.25,-3.85 -0.56,-0.2 -1.4,-0.51 -2.54,-0.9 -4.65,-1.59 -7.98,-3.11 -10.02,-4.52 -2.11,-1.47 -3.64,-3.13 -4.62,-4.99 -0.98,-1.86 -1.47,-4.04 -1.47,-6.52 0,-4.74 1.73,-8.47 5.2,-11.21 3.46,-2.75 8.23,-4.12 14.3,-4.12 2.71,0 5.28,0.37 7.68,1.09 2.41,0.73 4.64,1.81 6.67,3.25z" style="fill: rgb(255, 247, 178); fill-rule: nonzero; fill-opacity: 1;"/>
  <path id="_2_1" class="fil2" d="M1964.95 4060.63l49.46 0 1.49 14.14 -3.05 0c-0.64,-4.22 -1.71,-7.04 -3.17,-8.47 -1.46,-1.44 -4.08,-2.17 -7.85,-2.17l-5.94 0 0 38.22c0,2.86 0.35,4.61 1.05,5.24 0.71,0.64 2.44,0.96 5.21,0.96l0.81 0 0 3.36c-2.81,-0.14 -5.31,-0.25 -7.5,-0.32 -2.19,-0.07 -4.05,-0.11 -5.58,-0.11 -1.58,0 -3.47,0.04 -5.7,0.11 -2.23,0.07 -4.83,0.18 -7.77,0.32l0 -3.36 0.65 0c2.73,0 4.48,-0.32 5.25,-0.96 0.78,-0.63 1.17,-2.38 1.17,-5.24l0 -38.22 -5.94 0c-3.71,0 -6.31,0.73 -7.82,2.18 -1.5,1.45 -2.56,4.27 -3.2,8.46l-3.05 0 1.49 -14.14z" style="fill: rgb(255, 247, 178); fill-rule: nonzero; fill-opacity: 1;"/>
  <path id="_3_2" class="fil2" d="M2052.91 4104.21c1.35,-0.44 2.79,-0.77 4.3,-0.99 1.53,-0.2 3.42,-0.31 5.69,-0.31 2.03,0 4.45,0.06 7.25,0.18 2.8,0.12 4.57,0.18 5.33,0.18 2.61,0 4.26,-2.1 4.93,-6.29 0.15,-0.88 0.26,-1.57 0.34,-2.06l2.97 0c-0.2,2.09 -0.47,4.52 -0.82,7.29 -0.35,2.77 -0.81,6.05 -1.36,9.84 -1.2,0.07 -2.35,0.12 -3.45,0.15 -1.09,0.04 -2.14,0.06 -3.16,0.06 -2.52,0 -6.22,-0.12 -11.13,-0.36 -4.9,-0.24 -8.54,-0.36 -10.95,-0.36 -1.5,0 -3.1,0.05 -4.79,0.15 -1.7,0.11 -3.46,0.27 -5.3,0.49l-0.54 -0.72c1.24,-2.27 2.68,-4.36 4.34,-6.26 1.66,-1.89 3.61,-3.69 5.86,-5.38l1.23 -0.94c10.23,-7.8 15.35,-14.98 15.35,-21.56 0,-3.76 -0.95,-6.66 -2.85,-8.68 -1.9,-2.03 -4.6,-3.04 -8.08,-3.04 -2.93,0 -5.39,0.77 -7.38,2.32 -1.98,1.55 -3.15,3.58 -3.48,6.12 2.01,0.23 3.65,0.89 4.92,2 1.28,1.11 1.91,2.42 1.91,3.92 0,1.43 -0.42,2.55 -1.25,3.39 -0.83,0.83 -1.95,1.25 -3.35,1.25 -2.03,0 -3.71,-0.75 -5.02,-2.25 -1.32,-1.5 -1.97,-3.44 -1.97,-5.83 0,-4.42 1.77,-8.06 5.32,-10.91 3.55,-2.86 8.11,-4.29 13.67,-4.29 5.85,0 10.51,1.35 13.97,4.05 3.46,2.69 5.19,6.3 5.19,10.81 0,3.86 -1.15,7.26 -3.46,10.2 -2.29,2.94 -6.97,6.48 -14.02,10.58 -0.43,0.26 -1.06,0.63 -1.9,1.12 -4.5,2.58 -7.28,4.62 -8.32,6.11z" style="fill: rgb(255, 247, 178); fill-rule: nonzero; fill-opacity: 1;"/>
  <path id="_4_3" class="fil2" d="M2109.68 4064.7c-2.95,0 -5.22,1.99 -6.79,5.96 -1.57,3.98 -2.35,9.7 -2.35,17.19 0,7.05 0.74,12.37 2.23,15.95 1.49,3.59 3.69,5.39 6.62,5.39 2.9,0 5.16,-1.94 6.76,-5.81 1.6,-3.87 2.39,-9.33 2.39,-16.4 0,-7.51 -0.73,-13.11 -2.19,-16.77 -1.46,-3.68 -3.68,-5.51 -6.66,-5.51zm-0.07 -3.36c6.17,0 11.16,2.33 14.94,7 3.78,4.65 5.67,10.84 5.67,18.57 0,7.65 -1.93,13.84 -5.8,18.56 -3.86,4.73 -8.84,7.08 -14.95,7.08 -6.15,0 -11.11,-2.33 -14.88,-7 -3.77,-4.65 -5.65,-10.87 -5.65,-18.64 0,-7.66 1.92,-13.82 5.77,-18.52 3.83,-4.7 8.8,-7.05 14.91,-7.05z" style="fill: rgb(255, 247, 178); fill-rule: nonzero; fill-opacity: 1;"/>
  <path id="_5_4" class="fil2" d="M2145.44 4104.21c1.35,-0.44 2.79,-0.77 4.3,-0.99 1.53,-0.2 3.42,-0.31 5.69,-0.31 2.03,0 4.45,0.06 7.25,0.18 2.8,0.12 4.58,0.18 5.33,0.18 2.61,0 4.27,-2.1 4.93,-6.29 0.15,-0.88 0.26,-1.57 0.33,-2.06l2.97 0c-0.2,2.09 -0.47,4.52 -0.82,7.29 -0.35,2.77 -0.81,6.05 -1.36,9.84 -1.2,0.07 -2.35,0.12 -3.45,0.15 -1.09,0.04 -2.14,0.06 -3.16,0.06 -2.52,0 -6.22,-0.12 -11.13,-0.36 -4.9,-0.24 -8.54,-0.36 -10.95,-0.36 -1.5,0 -3.1,0.05 -4.78,0.15 -1.7,0.11 -3.46,0.27 -5.31,0.49l-0.54 -0.72c1.24,-2.27 2.68,-4.36 4.34,-6.26 1.66,-1.89 3.61,-3.69 5.86,-5.38l1.23 -0.94c10.23,-7.8 15.35,-14.98 15.35,-21.56 0,-3.76 -0.96,-6.66 -2.85,-8.68 -1.9,-2.03 -4.6,-3.04 -8.08,-3.04 -2.93,0 -5.39,0.77 -7.38,2.32 -1.98,1.55 -3.15,3.58 -3.48,6.12 2.01,0.23 3.64,0.89 4.92,2 1.28,1.11 1.91,2.42 1.91,3.92 0,1.43 -0.42,2.55 -1.25,3.39 -0.83,0.83 -1.95,1.25 -3.35,1.25 -2.03,0 -3.71,-0.75 -5.02,-2.25 -1.31,-1.5 -1.97,-3.44 -1.97,-5.83 0,-4.42 1.77,-8.06 5.32,-10.91 3.54,-2.86 8.1,-4.29 13.67,-4.29 5.85,0 10.51,1.35 13.97,4.05 3.46,2.69 5.19,6.3 5.19,10.81 0,3.86 -1.15,7.26 -3.46,10.2 -2.29,2.94 -6.97,6.48 -14.02,10.58 -0.44,0.26 -1.07,0.63 -1.9,1.12 -4.5,2.58 -7.28,4.62 -8.32,6.11z" style="fill: rgb(255, 247, 178); fill-rule: nonzero; fill-opacity: 1;"/>
  <path id="_6_5" class="fil2" d="M2208.31 4061.35l0 42.33c0,2.37 0.31,3.8 0.94,4.28 0.63,0.49 2.12,0.74 4.47,0.74l1.81 0 0 3.21c-4.57,-0.17 -7.67,-0.26 -9.27,-0.3 -1.61,-0.04 -2.84,-0.05 -3.69,-0.05 -1.66,0 -3.66,0.02 -5.98,0.07 -2.31,0.04 -5.29,0.13 -8.95,0.27l0 -3.21 1.64 0c3.5,0 5.68,-0.3 6.56,-0.89 0.88,-0.6 1.33,-1.96 1.33,-4.13l0 -35.52c-1.75,0.23 -3.37,0.49 -4.9,0.8 -1.54,0.3 -3,0.64 -4.4,1.03l0 -3.57c2.39,-0.61 6.01,-1.38 10.82,-2.32 4.82,-0.95 8.03,-1.87 9.63,-2.75z" style="fill: rgb(255, 247, 178); fill-rule: nonzero; fill-opacity: 1;"/>
  <path class="fil2" d="M1524.4 4151.94l2.68 -2.12 6.34 5.92 49.24 -38.93 -6.5 -6.07 2.51 -1.99 44.96 41.96 -15.35 12.96 -2.76 -2.58c3.6,-5.09 5.31,-9.43 5.13,-13.02 -0.17,-3.6 -2.32,-7.32 -6.46,-11.18l-8.11 -7.57 -22.32 17.71c0.16,0.2 0.38,0.42 0.64,0.69 0.27,0.28 0.62,0.63 1.11,1.08 2.82,2.63 5.77,4.01 8.82,4.14 3.07,0.14 6.56,-0.96 10.49,-3.3l2.68 2.5 -23.19 18.34 -2.68 -2.5c3.48,-3.24 5.27,-6.22 5.4,-8.91 0.13,-2.7 -1.38,-5.52 -4.52,-8.45l-1.54 -1.44 -24.12 19.07 7.72 7.21 -2.68 2.12 -27.47 -25.64z" style="fill: rgb(255, 247, 178); fill-rule: nonzero; fill-opacity: 1;"/>
  <path class="fil2" d="M1574.32 4196.97l2.07 -2.33 4.98 3.39 22.82 -25.69 -5.08 -3.45 2.07 -2.33c3.07,1.92 6.13,3.81 9.22,5.66 3.09,1.87 6.22,3.69 9.38,5.48l-7.41 8.34c3.58,-1.77 7.04,-2.69 10.39,-2.78 3.34,-0.08 6.17,0.66 8.51,2.25 2.32,1.57 3.71,3.52 4.17,5.83 0.44,2.3 -0.13,4.36 -1.76,6.19 -1.44,1.62 -3.25,2.53 -5.44,2.73 -2.2,0.19 -4.26,-0.36 -6.2,-1.68 -1.68,-1.14 -2.65,-2.61 -2.91,-4.41 -0.26,-1.83 0.24,-3.44 1.53,-4.89 0.49,-0.56 1.19,-1 2.07,-1.34 0.9,-0.33 1.43,-0.59 1.61,-0.8 0.11,-0.13 0.13,-0.28 0.07,-0.47 -0.04,-0.17 -0.18,-0.33 -0.4,-0.48 -1.35,-0.91 -3.97,-0.68 -7.87,0.69 -3.91,1.38 -7.1,3.44 -9.55,6.2l-12.24 13.78 6.77 4.6 -2.08 2.33 -24.72 -16.8z" style="fill: rgb(255, 247, 178); fill-rule: nonzero; fill-opacity: 1;"/>
  <path class="fil2" d="M1640.83 4214.18l12.98 7.73 4.76 -6.21c1.33,-1.73 1.77,-3.3 1.33,-4.69 -0.44,-1.39 -1.8,-2.76 -4.06,-4.11 -2.18,-1.3 -4.12,-1.86 -5.81,-1.67 -1.68,0.17 -3.18,1.09 -4.44,2.74l-4.76 6.21zm17.09 23.3l1.77 1.99c-4.52,2.78 -9.04,4.13 -13.58,4.07 -4.56,-0.07 -9.3,-1.58 -14.26,-4.54 -6.82,-4.06 -11.13,-8.81 -12.88,-14.25 -1.75,-5.44 -0.71,-10.66 3.13,-15.67 3.8,-4.95 9.06,-7.82 15.78,-8.59 6.72,-0.77 13.29,0.76 19.7,4.58 5.88,3.51 9.5,7.63 10.83,12.38 1.34,4.73 0.21,9.45 -3.4,14.14l-0.3 0.4 -25.77 -15.35 -6.17 8.04c-2.4,3.13 -3.45,5.62 -3.17,7.47 0.27,1.85 1.86,3.65 4.77,5.39 3.93,2.34 7.86,3.51 11.8,3.49 3.92,-0.01 7.84,-1.19 11.74,-3.54z" style="fill: rgb(255, 247, 178); fill-rule: nonzero; fill-opacity: 1;"/>
  <path class="fil2" d="M1663 4256.7l7.87 -12.55 2.58 1.29c-1.16,4.3 -1.09,8.04 0.23,11.17 1.33,3.14 3.82,5.61 7.47,7.43 2.89,1.44 5.62,2.03 8.2,1.78 2.56,-0.26 4.38,-1.26 5.48,-3.01 1.37,-2.19 -0.75,-5.11 -6.37,-8.72 -1.61,-1.03 -2.85,-1.84 -3.69,-2.44 -4.91,-3.3 -7.93,-6.28 -9.05,-8.96 -1.13,-2.66 -0.7,-5.59 1.3,-8.78 2.32,-3.69 5.47,-5.98 9.48,-6.86 3.98,-0.87 8.22,-0.2 12.69,2.03 1.69,0.84 3.27,1.86 4.73,3.02 1.47,1.19 2.75,2.47 3.82,3.85l3.16 -0.49 2.07 1.03 -5.72 9.77 -2.58 -1.29c0.58,-3.16 0.31,-5.9 -0.81,-8.22 -1.1,-2.31 -3.05,-4.15 -5.84,-5.54 -2.74,-1.37 -5.26,-2.03 -7.62,-2.02 -2.33,0.01 -3.92,0.66 -4.73,1.96 -1.17,1.86 1.5,4.89 8,9.08 1.05,0.67 1.86,1.21 2.44,1.61 5.05,3.26 8.1,6.33 9.15,9.2 1.05,2.87 0.4,6.17 -1.95,9.91 -2.54,4.05 -5.94,6.55 -10.17,7.46 -4.24,0.92 -8.8,0.16 -13.67,-2.27 -2.36,-1.18 -4.36,-2.49 -6.01,-3.96 -1.65,-1.47 -2.96,-3.03 -3.85,-4.68l-4.13 0.42 -2.48 -1.24z" style="fill: rgb(255, 247, 178); fill-rule: nonzero; fill-opacity: 1;"/>
  <path class="fil2" d="M1700.81 4271.93l6.38 2.78 28.58 -53 -7.02 -3.06 1.45 -2.68c3.77,1.65 7.52,3.19 11.23,4.62 3.71,1.44 7.34,2.78 10.89,4.04l-17.46 32.36c3.72,-2.22 7.32,-3.47 10.76,-3.71 3.45,-0.26 7.13,0.46 10.99,2.14 4.47,1.95 7.19,4.11 8.17,6.51 0.97,2.37 0.31,5.71 -1.99,9.98l-11.81 21.9 6.16 2.69 -1.45 2.68 -26.04 -11.36 1.45 -2.68 5.53 2.41 13.27 -24.61c0.88,-1.63 1.16,-2.96 0.86,-3.99 -0.29,-1.03 -1.2,-1.87 -2.72,-2.53 -2.62,-1.14 -5.7,-0.92 -9.23,0.68 -3.53,1.6 -6.2,4.07 -7.98,7.37l-8.96 16.62 5.42 2.36 -1.45 2.68 -26.46 -11.55 1.45 -2.68z" style="fill: rgb(255, 247, 178); fill-rule: nonzero; fill-opacity: 1;"/>
  <path class="fil2" d="M1862.14 4310.12l-5.02 18.9 -3.66 -0.88 -4.08 -4.69c-2.65,1.13 -5.56,1.77 -8.76,1.9 -3.21,0.14 -6.64,-0.24 -10.3,-1.12 -5.08,-1.22 -9.51,-3.18 -13.28,-5.86 -3.78,-2.7 -7.03,-6.19 -9.74,-10.5 -2.7,-4.2 -4.44,-8.42 -5.2,-12.64 -0.77,-4.22 -0.58,-8.51 0.56,-12.82 1.13,-4.26 3.09,-8.05 5.9,-11.4 2.8,-3.33 6.46,-6.25 10.98,-8.75 4.52,-2.5 9.15,-4.07 13.89,-4.72 4.75,-0.63 9.66,-0.34 14.72,0.88 3.11,0.75 5.95,1.83 8.54,3.26 2.57,1.43 4.94,3.2 7.08,5.31l4.89 -2.29 3.74 0.9 -4.18 17.55 -3.98 -0.96c-0.96,-6.19 -2.77,-10.91 -5.45,-14.18 -2.68,-3.27 -6.57,-5.51 -11.63,-6.73 -5.71,-1.37 -10,-0.71 -12.9,1.98 -2.88,2.69 -6.03,10.46 -9.43,23.26 -1.8,6.76 -3.04,11.83 -3.74,15.22 -0.72,3.4 -1.04,5.88 -0.98,7.48 0.07,3.37 1,6.01 2.74,7.91 1.74,1.9 4.53,3.31 8.34,4.23 5.24,1.26 10.34,0.75 15.34,-1.53 5,-2.27 8.82,-5.83 11.4,-10.69l4.21 1.01z" style="fill: rgb(255, 247, 178); fill-rule: nonzero; fill-opacity: 1;"/>
  <path class="fil2" d="M1870.98 4314.73c0.95,-6.02 4.23,-10.53 9.84,-13.54 5.61,-3 12.39,-3.86 20.33,-2.58 7.98,1.29 14.19,4.24 18.63,8.86 4.43,4.61 6.17,9.91 5.23,15.9 -0.94,5.98 -4.24,10.49 -9.9,13.5 -5.65,3.03 -12.45,3.89 -20.39,2.6 -7.94,-1.29 -14.12,-4.23 -18.53,-8.85 -4.41,-4.6 -6.15,-9.9 -5.21,-15.89zm29.91 -13.73c-3.57,-0.58 -6.15,0 -7.71,1.75 -1.56,1.76 -2.99,6.69 -4.27,14.8l-0.63 3.97c-0.97,6.15 -0.95,10.15 0.07,11.98 1.03,1.84 3.32,3.04 6.85,3.61 3.53,0.57 6.06,0.03 7.58,-1.6 1.54,-1.64 2.89,-6.16 4.05,-13.57l0.9 -5.72c0.93,-5.89 0.89,-9.77 -0.13,-11.61 -1.03,-1.86 -3.27,-3.06 -6.72,-3.62z" style="fill: rgb(255, 247, 178); fill-rule: nonzero; fill-opacity: 1;"/>
  <path class="fil2" d="M1933.57 4324.63c0.52,-6.07 3.47,-10.76 8.85,-14.07 5.38,-3.3 12.06,-4.51 20.05,-3.64 8.03,0.88 14.42,3.51 19.15,7.91 4.73,4.38 6.83,9.6 6.31,15.65 -0.52,6.04 -3.49,10.73 -8.9,14.03 -5.42,3.32 -12.12,4.54 -20.11,3.66 -7.99,-0.87 -14.34,-3.5 -19.05,-7.9 -4.71,-4.38 -6.81,-9.6 -6.29,-15.64zm28.81 -15.3c-3.59,-0.39 -6.11,0.32 -7.55,2.15 -1.43,1.84 -2.51,6.85 -3.22,15.04l-0.35 4.01c-0.54,6.21 -0.23,10.21 0.9,12 1.16,1.79 3.51,2.87 7.06,3.26 3.55,0.39 6.03,-0.28 7.44,-1.99 1.42,-1.73 2.44,-6.32 3.09,-13.79l0.5 -5.78c0.51,-5.94 0.2,-9.82 -0.94,-11.61 -1.16,-1.81 -3.47,-2.9 -6.94,-3.28z" style="fill: rgb(255, 247, 178); fill-rule: nonzero; fill-opacity: 1;"/>
  <path class="fil2" d="M2015.14 4329.01l19.99 -14.07 -10.93 -0.34 -0.06 -3.02 24.37 0.75 0.06 3.02 -8.65 -0.27 -11.84 8.19 22.94 25.44 4.78 0.15 0.06 3.02 -29.56 -0.91 -0.06 -3.02 5.87 0.18 -16.96 -19.12zm-21.77 17.94l5.72 0.17 -1.2 -59.37 -5.72 -0.17 -0.06 -3.02c3.07,-0 6.39,-0.05 9.97,-0.14 3.56,-0.09 7.42,-0.23 11.6,-0.4l1.28 63.59 7.35 0.23 0.06 3.02 -28.94 -0.89 -0.06 -3.02z" style="fill: rgb(255, 247, 178); fill-rule: nonzero; fill-opacity: 1;"/>
  <path class="fil2" d="M2057.9 4295.67c-0.17,-1.93 0.47,-3.59 1.95,-5 1.48,-1.41 3.34,-2.14 5.57,-2.19 2.19,-0.05 4.13,0.58 5.79,1.9 1.66,1.33 2.57,2.97 2.75,4.93 0.18,1.95 -0.45,3.62 -1.87,5.05 -1.43,1.43 -3.24,2.16 -5.47,2.21 -2.25,0.05 -4.21,-0.59 -5.91,-1.95 -1.7,-1.36 -2.63,-3 -2.81,-4.95zm-1.36 56.45l-0.28 -3.02 6.86 -0.15 -3.04 -33.22 -7.56 0.17 -0.22 -3.02c4.2,-0.19 8.24,-0.44 12.13,-0.73 3.9,-0.29 7.67,-0.63 11.31,-1.01l3.43 37.45 7.21 -0.16 0.28 3.02 -30.13 0.68z" style="fill: rgb(255, 247, 178); fill-rule: nonzero; fill-opacity: 1;"/>
  <path class="fil2" d="M2105.43 4326.8l15.31 -0.76 -0.97 -7.62c-0.27,-2.13 -1.09,-3.64 -2.43,-4.53 -1.34,-0.89 -3.35,-1.27 -6.02,-1.13 -2.57,0.13 -4.42,0.72 -5.55,1.79 -1.13,1.05 -1.57,2.61 -1.32,4.63l0.97 7.62zm29.71 9.65l2.77 0.65c-1.34,4.7 -3.73,8.26 -7.16,10.67 -3.45,2.41 -8.08,3.76 -13.94,4.05 -8.04,0.4 -14.72,-1.12 -19.98,-4.59 -5.27,-3.46 -8.29,-8.27 -9.08,-14.42 -0.77,-6.08 1.05,-11.26 5.51,-15.53 4.46,-4.27 10.46,-6.59 18.02,-6.96 6.94,-0.34 12.64,1.04 17.09,4.18 4.44,3.12 7.03,7.56 7.77,13.32l0.06 0.49 -30.39 1.51 1.26 9.87c0.49,3.84 1.52,6.43 3.07,7.79 1.55,1.35 4.04,1.96 7.48,1.79 4.64,-0.23 8.42,-1.41 11.33,-3.56 2.92,-2.13 4.98,-5.22 6.18,-9.24z" style="fill: rgb(255, 247, 178); fill-rule: nonzero; fill-opacity: 1;"/>
  <path class="fil2" d="M2148.17 4347.59l-3.42 -14.43 2.86 -0.38c2.31,4.11 5.12,7.07 8.4,8.88 3.3,1.8 6.96,2.43 11,1.9 3.2,-0.42 5.65,-1.45 7.37,-3.06 1.7,-1.61 2.31,-3.42 1.83,-5.43 -0.6,-2.52 -4.32,-3.7 -11.13,-3.54 -1.95,0.05 -3.46,0.08 -4.53,0.05 -6.06,0.03 -10.49,-0.72 -13.29,-2.26 -2.8,-1.53 -4.63,-4.13 -5.5,-7.79 -1.01,-4.25 -0.36,-7.82 1.95,-10.73 2.3,-2.89 5.92,-4.67 10.88,-5.33 1.87,-0.25 3.78,-0.29 5.72,-0.16 1.96,0.15 3.85,0.48 5.66,1.01l1.97 -2.12 2.29 -0.3 2.97 11.02 -2.86 0.38c-1.9,-2.86 -4.12,-4.93 -6.65,-6.19 -2.52,-1.26 -5.31,-1.68 -8.4,-1.27 -3.03,0.4 -5.38,1.24 -7.12,2.55 -1.72,1.29 -2.41,2.68 -2.05,4.17 0.51,2.14 4.71,3.13 12.6,2.93 1.27,-0.03 2.27,-0.04 3,-0.04 6.13,-0.15 10.65,0.66 13.53,2.4 2.89,1.74 4.84,4.75 5.86,9.06 1.11,4.66 0.43,8.53 -2.02,11.6 -2.45,3.06 -6.39,4.95 -11.78,5.67 -2.61,0.35 -5.06,0.38 -7.36,0.1 -2.31,-0.28 -4.42,-0.82 -6.29,-1.67l-2.74 2.6 -2.74 0.36z" style="fill: rgb(255, 247, 178); fill-rule: nonzero; fill-opacity: 1;"/>
  <path class="fil2" d="M2274.66 4321.41l-5.84 -4.19c-2.58,3.13 -5.67,5.75 -9.29,7.92 -3.61,2.14 -7.74,3.79 -12.38,4.95 -6.83,1.7 -12.79,1.53 -17.92,-0.54 -5.12,-2.05 -8.7,-5.69 -10.75,-10.92 -1.82,-4.66 -1.54,-9.22 0.84,-13.65 2.41,-4.43 6.86,-8.71 13.38,-12.84 -2.55,-1.77 -4.74,-3.71 -6.54,-5.77 -1.82,-2.08 -3.15,-4.17 -3.97,-6.29 -1.61,-4.12 -1.01,-8.06 1.81,-11.8 2.82,-3.75 7.2,-6.37 13.17,-7.86 6.37,-1.59 11.83,-1.77 16.42,-0.52 4.59,1.25 7.6,3.68 9.03,7.35 1.18,3.02 0.76,5.99 -1.26,8.92 -2.01,2.91 -5.61,5.79 -10.78,8.64l23.28 15.91c1.19,-3.2 1.94,-6.19 2.27,-8.98 0.31,-2.77 0.17,-4.93 -0.43,-6.48 -0.46,-1.16 -1.13,-1.86 -2.03,-2.1 -0.91,-0.25 -2.5,-0.09 -4.76,0.48l-4.97 1.24 -1.13 -2.91 25.28 -6.31 1.14 2.91 -3.46 0.86c-2.08,0.52 -3.52,1.23 -4.3,2.12 -0.8,0.89 -1.24,2.56 -1.34,5.05 -0.13,3.7 -0.45,6.75 -0.97,9.19 -0.51,2.43 -1.27,4.75 -2.3,6.93l16 10.87 8.94 -2.23 1.17 3 -28.3 7.06zm-26.96 -38.42c2.06,-1.6 3.28,-3.39 3.66,-5.41 0.37,-2 -0.07,-4.62 -1.32,-7.83 -1.12,-2.87 -2.64,-4.84 -4.51,-5.87 -1.88,-1.04 -4.21,-1.2 -6.97,-0.51 -2.56,0.64 -4.34,1.55 -5.39,2.74 -1.03,1.2 -1.24,2.58 -0.62,4.16 0.57,1.45 1.61,2.89 3.15,4.35 1.53,1.44 3.96,3.25 7.28,5.39l4.72 2.98zm-12.31 11.03c-2.34,1.67 -3.9,3.37 -4.66,5.13 -0.74,1.76 -0.74,3.64 0.04,5.62 0.64,1.63 1.98,3.53 4.01,5.66 2.05,2.14 4.79,4.51 8.25,7.1 2.29,1.71 4.65,2.91 7.06,3.6 2.43,0.69 4.61,0.8 6.54,0.32 1.66,-0.41 3.27,-1.19 4.87,-2.33 1.57,-1.14 2.97,-2.53 4.13,-4.17l-30.23 -20.94z" style="fill: rgb(255, 247, 178); fill-rule: nonzero; fill-opacity: 1;"/>
  <path class="fil2" d="M2390.09 4263.58l10.68 17.8 -3.31 1.37 -6.5 -1.42c-1.05,2.39 -2.68,4.54 -4.9,6.44 -2.21,1.92 -4.98,3.55 -8.3,4.92 -4.6,1.9 -9.28,2.84 -14.04,2.84 -4.78,-0 -9.78,-0.94 -15,-2.83 -5.13,-1.81 -9.59,-4.17 -13.33,-7.08 -3.76,-2.91 -6.86,-6.41 -9.3,-10.47 -2.41,-4.02 -3.87,-8.12 -4.37,-12.35 -0.5,-4.22 -0.06,-8.59 1.32,-13.13 1.37,-4.53 3.54,-8.39 6.47,-11.57 2.96,-3.17 6.73,-5.71 11.31,-7.6 2.82,-1.16 5.69,-1.91 8.64,-2.23 2.94,-0.32 6,-0.25 9.15,0.21l1.8 -4.58 3.38 -1.39 10.27 16.26 -3.61 1.49c-5.38,-4.37 -10.26,-7.08 -14.68,-8.16 -4.42,-1.08 -8.93,-0.66 -13.51,1.22 -5.17,2.13 -7.77,5.08 -7.83,8.84 -0.04,3.75 3.56,11.68 10.8,23.75 3.82,6.37 6.76,11.09 8.82,14.16 2.05,3.1 3.7,5.25 4.96,6.48 2.6,2.63 5.28,4.2 7.97,4.72 2.69,0.52 5.78,0.07 9.24,-1.36 4.74,-1.95 8.04,-5.23 9.93,-9.87 1.9,-4.62 1.96,-9.59 0.14,-14.9l3.81 -1.57z" style="fill: rgb(255, 247, 178); fill-rule: nonzero; fill-opacity: 1;"/>
  <path class="fil2" d="M2431.23 4254.83c-0.41,3.09 -1.41,5.7 -3.03,7.83 -1.59,2.14 -4.01,4.04 -7.21,5.72 -3.26,1.71 -6.33,2.29 -9.19,1.76 -2.86,-0.55 -5.31,-2.18 -7.31,-4.89 -2.72,-3.68 -2.69,-7.77 0.09,-12.27 2.8,-4.5 7.96,-8.72 15.51,-12.67l-6.08 -8.22c-1.4,-1.9 -2.79,-2.92 -4.14,-3.07 -1.37,-0.15 -3.33,0.44 -5.86,1.76 -1.64,0.86 -2.76,1.68 -3.36,2.46 -0.59,0.79 -0.63,1.49 -0.15,2.15 0.13,0.17 0.83,0.57 2.12,1.22 1.28,0.64 2.28,1.44 3,2.41 1.21,1.63 1.57,3.19 1.11,4.66 -0.47,1.47 -1.75,2.74 -3.85,3.84 -1.85,0.97 -3.59,1.26 -5.28,0.87 -1.67,-0.4 -3.14,-1.45 -4.42,-3.17 -2.01,-2.72 -2,-5.66 0.03,-8.79 2.02,-3.14 5.91,-6.22 11.64,-9.22 2.53,-1.32 4.96,-2.37 7.26,-3.12 2.3,-0.76 4.34,-1.17 6.13,-1.24 2,-0.1 3.66,0.2 4.97,0.87 1.32,0.69 2.94,2.34 4.87,4.94l12.98 17.55c0.76,1.03 1.56,1.65 2.39,1.86 0.86,0.22 1.79,0.05 2.84,-0.5 0.44,-0.23 0.81,-0.61 1.11,-1.12 0.31,-0.52 0.55,-0.83 0.73,-0.93 0.26,-0.13 0.55,-0.16 0.86,-0.09 0.32,0.07 0.57,0.22 0.76,0.48 0.8,1.07 0.74,2.73 -0.19,4.94 -0.95,2.22 -2.6,3.94 -4.98,5.19 -2.13,1.11 -4.36,1.56 -6.72,1.33 -2.36,-0.21 -4.57,-1.06 -6.63,-2.54zm-9.42 -12.18l-1.14 0.59c-3.93,2.05 -6.32,4 -7.17,5.84 -0.84,1.82 -0.38,3.93 1.4,6.34 1.82,2.46 3.54,3.99 5.17,4.61 1.61,0.62 3.39,0.44 5.28,-0.56 1.9,-0.99 3.02,-2.36 3.38,-4.11 0.35,-1.75 -0.16,-3.57 -1.54,-5.42l-5.39 -7.28z" style="fill: rgb(255, 247, 178); fill-rule: nonzero; fill-opacity: 1;"/>
  <path class="fil2" d="M2455.62 4216.73l5.13 -22.16 -8.52 5.51 -2.19 -2.45 18.99 -12.29 2.19 2.45 -6.74 4.37 -3.15 13.01 35.48 8.78 3.73 -2.41 2.19 2.45 -23.04 14.91 -2.19 -2.45 4.58 -2.96 -26.46 -6.75zm-3.74 26.28l4.46 -2.88 -43.14 -48.2 -4.46 2.88 -2.19 -2.45c2.32,-1.63 4.8,-3.43 7.45,-5.4 2.63,-1.96 5.46,-4.12 8.5,-6.47l46.21 51.63 5.73 -3.71 2.19 2.45 -22.55 14.59 -2.19 -2.45z" style="fill: rgb(255, 247, 178); fill-rule: nonzero; fill-opacity: 1;"/>
  <path class="fil2" d="M2499.83 4186.89l11.38 -8.42 -5.96 -5.91c-1.66,-1.65 -3.33,-2.5 -4.98,-2.57 -1.65,-0.07 -3.47,0.64 -5.46,2.11 -1.91,1.41 -2.94,2.85 -3.09,4.33 -0.16,1.46 0.56,2.99 2.14,4.56l5.96 5.91zm29.69 -6.99l2.6 -0.86c2.17,4.63 2.74,8.83 1.72,12.6 -1.03,3.78 -3.72,7.26 -8.07,10.48 -5.98,4.42 -12.21,6.54 -18.67,6.3 -6.46,-0.23 -12.1,-2.73 -16.9,-7.49 -4.76,-4.71 -6.87,-10 -6.32,-15.84 0.55,-5.85 3.64,-10.85 9.26,-15.01 5.16,-3.82 10.54,-5.55 16.14,-5.18 5.59,0.36 10.63,2.77 15.14,7.24l0.38 0.38 -22.6 16.71 7.72 7.65c3,2.97 5.58,4.63 7.71,4.98 2.13,0.35 4.48,-0.41 7.04,-2.3 3.45,-2.55 5.58,-5.47 6.38,-8.75 0.81,-3.28 0.3,-6.91 -1.51,-10.9z" style="fill: rgb(255, 247, 178); fill-rule: nonzero; fill-opacity: 1;"/>
  <path class="fil2" d="M2546.11 4178.29l-14 -8.82 1.64 -2c4.9,1.71 9.2,2.25 12.89,1.64 3.7,-0.62 6.7,-2.36 9.02,-5.19 1.83,-2.25 2.67,-4.5 2.53,-6.75 -0.14,-2.24 -1.19,-3.97 -3.14,-5.2 -2.45,-1.54 -5.94,-0.2 -10.44,4.04 -1.29,1.22 -2.29,2.14 -3.04,2.77 -4.1,3.67 -7.71,5.77 -10.87,6.29 -3.14,0.53 -6.49,-0.32 -10.05,-2.56 -4.12,-2.59 -6.58,-5.68 -7.35,-9.27 -0.77,-3.56 0.25,-7.09 3.09,-10.57 1.07,-1.31 2.33,-2.5 3.76,-3.56 1.46,-1.07 3.01,-1.95 4.67,-2.65l-0.38 -2.79 1.31 -1.6 10.93 6.52 -1.64 2c-3.61,-1.02 -6.79,-1.24 -9.53,-0.66 -2.73,0.57 -4.97,1.93 -6.74,4.1 -1.73,2.13 -2.65,4.18 -2.78,6.21 -0.13,2 0.53,3.47 1.98,4.38 2.08,1.31 5.73,-0.48 10.95,-5.38 0.84,-0.79 1.51,-1.4 2.01,-1.83 4.06,-3.8 7.78,-5.91 11.15,-6.34 3.37,-0.43 7.13,0.67 11.32,3.3 4.52,2.85 7.2,6.17 8,9.96 0.81,3.79 -0.34,7.58 -3.43,11.37 -1.49,1.83 -3.13,3.33 -4.93,4.51 -1.79,1.18 -3.67,2.04 -5.62,2.53l0.24 3.62 -1.57 1.92z" style="fill: rgb(255, 247, 178); fill-rule: nonzero; fill-opacity: 1;"/>
  <path class="fil2" d="M1607.73 3304.66l-2.8 -3.1 7.98 -6.81 -51.45 -57.06 -3.51 2.99c-4.24,3.62 -6.44,7.77 -6.58,12.41 -0.16,4.66 1.78,11.05 5.8,19.19l-2.59 2.21 -17.59 -21.05 60.4 -51.6 19.21 19.67 -2.59 2.21c-7.49,-4.82 -13.69,-7.49 -18.58,-8.01 -4.9,-0.51 -9.4,0.99 -13.52,4.51l-3.69 3.15 51.45 57.06 7.97 -6.81 2.8 3.1 -32.7 27.93z" style="fill: rgb(255, 247, 178); fill-rule: nonzero; fill-opacity: 1;"/>
  <path class="fil2" d="M1676.6 3246.52c-0.68,3.96 -1.98,7.31 -3.96,10.05 -1.96,2.75 -4.83,5.2 -8.58,7.36 -3.83,2.2 -7.35,2.95 -10.58,2.28 -3.22,-0.7 -5.9,-2.78 -8,-6.25 -2.86,-4.71 -2.55,-9.96 0.9,-15.74 3.48,-5.77 9.63,-11.21 18.48,-16.3l-6.39 -10.52c-1.47,-2.43 -2.98,-3.73 -4.51,-3.93 -1.55,-0.18 -3.81,0.57 -6.79,2.28 -1.92,1.1 -3.25,2.17 -3.98,3.16 -0.72,1.01 -0.81,1.92 -0.31,2.75 0.14,0.22 0.9,0.73 2.33,1.56 1.42,0.81 2.5,1.83 3.26,3.08 1.27,2.09 1.58,4.09 0.95,5.97 -0.63,1.88 -2.17,3.52 -4.63,4.93 -2.17,1.25 -4.17,1.63 -6.06,1.14 -1.87,-0.5 -3.48,-1.85 -4.82,-4.05 -2.11,-3.48 -1.91,-7.25 0.61,-11.27 2.51,-4.04 7.14,-8 13.86,-11.86 2.97,-1.71 5.8,-3.06 8.47,-4.02 2.67,-0.98 5.02,-1.51 7.06,-1.61 2.28,-0.13 4.15,0.24 5.6,1.1 1.46,0.89 3.2,2.99 5.22,6.32l13.63 22.46c0.8,1.32 1.67,2.11 2.6,2.38 0.96,0.27 2.04,0.05 3.27,-0.66 0.51,-0.29 0.97,-0.78 1.33,-1.44 0.39,-0.67 0.69,-1.07 0.89,-1.19 0.3,-0.17 0.64,-0.22 0.98,-0.12 0.36,0.09 0.63,0.28 0.84,0.62 0.83,1.37 0.66,3.5 -0.54,6.34 -1.22,2.85 -3.21,5.07 -6.01,6.68 -2.49,1.44 -5.07,2.02 -7.74,1.72 -2.67,-0.26 -5.13,-1.35 -7.38,-3.23zm-9.92 -15.59l-1.33 0.77c-4.61,2.65 -7.45,5.16 -8.54,7.51 -1.07,2.34 -0.69,5.04 1.18,8.12 1.91,3.15 3.77,5.11 5.58,5.89 1.79,0.79 3.83,0.55 6.05,-0.73 2.23,-1.28 3.6,-3.04 4.11,-5.29 0.51,-2.24 0.05,-4.58 -1.39,-6.95l-5.66 -9.32z" style="fill: rgb(255, 247, 178); fill-rule: nonzero; fill-opacity: 1;"/>
  <path class="fil2" d="M1708.83 3239.91l-7.74 -17.14 3.04 -1.3c3.67,4.5 7.57,7.41 11.67,8.74 4.12,1.32 8.32,1.05 12.61,-0.79 3.4,-1.45 5.81,-3.45 7.25,-5.97 1.43,-2.51 1.6,-4.96 0.52,-7.34 -1.35,-3 -5.76,-3.41 -13.21,-1.23 -2.13,0.63 -3.78,1.1 -4.96,1.37 -6.66,1.79 -11.72,2.12 -15.23,0.99 -3.5,-1.11 -6.23,-3.85 -8.2,-8.2 -2.28,-5.04 -2.55,-9.72 -0.81,-14.04 1.73,-4.29 5.23,-7.57 10.49,-9.82 1.98,-0.85 4.07,-1.46 6.24,-1.85 2.2,-0.38 4.36,-0.5 6.5,-0.36l1.58 -3.24 2.43 -1.04 6.3 12.98 -3.04 1.3c-2.88,-3.05 -5.88,-5.01 -9.02,-5.85 -3.11,-0.85 -6.3,-0.57 -9.57,0.83 -3.22,1.38 -5.57,3.11 -7.12,5.26 -1.53,2.11 -1.91,4.06 -1.11,5.83 1.15,2.54 6.04,2.56 14.66,0.05 1.39,-0.4 2.48,-0.71 3.28,-0.91 6.7,-1.95 11.88,-2.24 15.54,-0.89 3.66,1.35 6.63,4.57 8.94,9.69 2.5,5.53 2.83,10.59 0.97,15.14 -1.86,4.55 -5.66,8.06 -11.38,10.51 -2.77,1.19 -5.45,1.93 -8.06,2.25 -2.61,0.32 -5.08,0.25 -7.37,-0.28l-2.3 4.06 -2.91 1.25z" style="fill: rgb(255, 247, 178); fill-rule: nonzero; fill-opacity: 1;"/>
  <path class="fil2" d="M1757.3 3210.02l-9.95 -33.78 -7.27 2.03 -1.1 -3.72 7.27 -2.03 -4.5 -15.26c0.88,-0.04 1.85,-0.18 2.9,-0.38 1.04,-0.22 2.56,-0.6 4.6,-1.17 1.83,-0.51 3.51,-1.03 5.08,-1.57 1.55,-0.52 3.06,-1.08 4.51,-1.64l4.5 15.26 10.2 -2.85 1.1 3.72 -10.2 2.85 9.95 33.78c0.62,2.09 1.33,3.43 2.13,4.04 0.8,0.6 2,0.7 3.57,0.26 1.57,-0.44 2.68,-1.44 3.33,-2.99 0.65,-1.55 0.73,-3.45 0.3,-5.68l3.44 -0.96c0.98,4.27 0.23,8.13 -2.25,11.58 -2.51,3.43 -6.3,5.85 -11.42,7.28 -4.8,1.34 -8.35,1.48 -10.59,0.43 -2.24,-1.06 -4.11,-4.11 -5.6,-9.18z" style="fill: rgb(255, 247, 178); fill-rule: nonzero; fill-opacity: 1;"/>
  <path class="fil2" d="M1810.83 3176.15l17.06 -3.85 -2.27 -9.54c-0.63,-2.66 -1.78,-4.43 -3.42,-5.32 -1.64,-0.89 -3.96,-0.99 -6.93,-0.32 -2.87,0.65 -4.85,1.75 -5.95,3.33 -1.11,1.55 -1.36,3.62 -0.76,6.16l2.27 9.54zm34.83 6.72l3.21 0.31c-0.78,6.25 -2.91,11.24 -6.38,14.96 -3.49,3.73 -8.49,6.31 -15.01,7.78 -8.96,2.02 -16.68,1.33 -23.13,-2.09 -6.45,-3.43 -10.58,-8.99 -12.42,-16.68 -1.81,-7.61 -0.56,-14.56 3.77,-20.84 4.34,-6.28 10.72,-10.37 19.14,-12.27 7.73,-1.74 14.34,-1.05 19.82,2.11 5.47,3.14 9.06,8.32 10.78,15.53l0.14 0.61 -33.86 7.64 2.94 12.35c1.14,4.8 2.7,7.92 4.66,9.35 1.96,1.44 4.84,1.74 8.67,0.87 5.17,-1.17 9.23,-3.39 12.17,-6.68 2.94,-3.27 4.77,-7.59 5.49,-12.95z" style="fill: rgb(255, 247, 178); fill-rule: nonzero; fill-opacity: 1;"/>
  <path class="fil2" d="M1898.01 3166.63c-1.02,-7.79 1,-14.5 6.06,-20.16 5.06,-5.64 12.11,-9.02 21.14,-10.14 9.08,-1.12 16.81,0.42 23.18,4.64 6.37,4.2 10.04,10.19 11.05,17.94 1.01,7.75 -1.03,14.46 -6.13,20.13 -5.1,5.68 -12.17,9.07 -21.2,10.19 -9.04,1.12 -16.73,-0.43 -23.07,-4.66 -6.34,-4.21 -10.02,-10.19 -11.03,-17.94zm27.74 -27.24c-4.05,0.5 -6.66,2.1 -7.75,4.8 -1.09,2.72 -0.97,9.31 0.4,19.82l0.67 5.14c1.04,7.96 2.42,12.91 4.14,14.85 1.74,1.93 4.62,2.64 8.64,2.14 4.02,-0.5 6.58,-2.03 7.67,-4.57 1.11,-2.57 1.03,-8.63 -0.21,-18.22l-0.97 -7.41c-0.99,-7.62 -2.35,-12.42 -4.08,-14.36 -1.75,-1.95 -4.58,-2.69 -8.51,-2.2z" style="fill: rgb(255, 247, 178); fill-rule: nonzero; fill-opacity: 1;"/>
  <path class="fil2" d="M1977.7 3179.08l-3.94 -42.44 -8.32 0.73 -0.36 -3.86 8.32 -0.73 -0.25 -2.7c-0.87,-9.34 1.04,-17.29 5.73,-23.9 4.67,-6.59 10.93,-10.23 18.77,-10.92 4.65,-0.41 8.48,0.29 11.49,2.1 3.01,1.79 4.66,4.32 4.97,7.6 0.24,2.64 -0.29,4.74 -1.59,6.28 -1.32,1.56 -3.3,2.45 -5.97,2.69 -2.31,0.2 -4.29,-0.29 -5.89,-1.51 -1.6,-1.22 -2.51,-2.87 -2.7,-4.97 -0.14,-1.52 0.3,-2.99 1.32,-4.44 1.02,-1.45 1.49,-2.31 1.47,-2.61 -0.05,-0.49 -0.44,-0.89 -1.17,-1.15 -0.73,-0.28 -1.68,-0.37 -2.8,-0.27 -2.71,0.24 -4.68,1.45 -5.97,3.66 -1.26,2.21 -1.73,5.27 -1.37,9.17 0.19,2.08 0.51,4.75 0.94,8 0.44,3.23 0.7,5.41 0.81,6.5l0.45 4.89 11.36 -1 0.36 3.86 -11.36 1 3.94 42.44 9.25 -0.81 0.36 3.86 -35.14 3.09 -0.36 -3.86 7.66 -0.67z" style="fill: rgb(255, 247, 178); fill-rule: nonzero; fill-opacity: 1;"/>
  <path d="M 2055.679931640625 3178.090087890625 L 2055.85009765625 3173.9599609375 L 2066.320068359375 3174.3701171875 L 2069.449951171875 3098.510009765625 L 2058.97998046875 3098.10009765625 L 2059.1298828125 3094.360107421875 L 2101.81005859375 3096.030029296875 L 2101.659912109375 3099.77001953125 L 2091.320068359375 3099.360107421875 L 2089.89990234375 3133.81005859375 L 2118.7900390625 3134.93994140625 L 2120.2099609375 3100.489990234375 L 2109.8798828125 3100.090087890625 L 2110.030029296875 3096.35009765625 L 2152.580078125 3098.010009765625 L 2152.419921875 3101.75 L 2141.949951171875 3101.340087890625 L 2138.820068359375 3177.199951171875 L 2149.2900390625 3177.610107421875 L 2149.1201171875 3181.739990234375 L 2106.580078125 3180.070068359375 L 2106.739990234375 3175.949951171875 L 2117.080078125 3176.35009765625 L 2118.60009765625 3139.7099609375 L 2089.699951171875 3138.580078125 L 2088.18994140625 3175.219970703125 L 2098.530029296875 3175.6298828125 L 2098.360107421875 3179.75 Z" class="fil2" style="fill: rgb(255, 247, 178); fill-rule: nonzero; fill-opacity: 1;"/>
  <path class="fil2" d="M2182.45 3151.94l17.46 1.31 0.77 -9.76c0.22,-2.72 -0.33,-4.75 -1.62,-6.08 -1.29,-1.33 -3.47,-2.1 -6.51,-2.32 -2.93,-0.22 -5.17,0.26 -6.7,1.44 -1.53,1.16 -2.42,3.06 -2.62,5.65l-0.77 9.76zm31.15 16.59l2.96 1.24c-2.67,5.73 -6.24,9.87 -10.7,12.4 -4.48,2.53 -10.04,3.54 -16.72,3.04 -9.17,-0.69 -16.32,-3.6 -21.41,-8.76 -5.09,-5.15 -7.32,-11.67 -6.7,-19.54 0.62,-7.79 3.95,-14.05 10.03,-18.78 6.07,-4.72 13.42,-6.76 22.04,-6.11 7.91,0.6 14.01,3.19 18.25,7.8 4.25,4.59 6.08,10.58 5.49,17.96l-0.05 0.62 -34.65 -2.61 -1 12.64c-0.39,4.91 0.13,8.34 1.56,10.28 1.42,1.94 4.08,3.07 8.01,3.37 5.29,0.4 9.84,-0.53 13.66,-2.81 3.82,-2.26 6.9,-5.85 9.24,-10.74z" style="fill: rgb(255, 247, 178); fill-rule: nonzero; fill-opacity: 1;"/>
  <path class="fil2" d="M2221.8 3187.91l0.44 -3.85 6.99 0.75 4.79 -42.35 -7.12 -0.76 0.44 -3.85c4.19,0.28 8.37,0.53 12.53,0.72 4.18,0.21 8.37,0.33 12.56,0.41l-1.56 13.75c2.25,-4.13 4.93,-7.24 8.07,-9.38 3.13,-2.11 6.32,-3 9.6,-2.65 3.25,0.35 5.86,1.67 7.83,3.95 1.94,2.29 2.76,4.93 2.41,7.95 -0.3,2.67 -1.43,4.78 -3.38,6.33 -1.98,1.54 -4.29,2.18 -7.02,1.89 -2.35,-0.25 -4.26,-1.3 -5.7,-3.14 -1.46,-1.87 -2.04,-3.96 -1.77,-6.36 0.1,-0.92 0.47,-1.83 1.09,-2.74 0.64,-0.9 0.97,-1.52 1.01,-1.86 0.02,-0.22 -0.07,-0.4 -0.25,-0.57 -0.16,-0.17 -0.39,-0.26 -0.7,-0.29 -1.89,-0.2 -4.24,1.64 -7.05,5.52 -2.82,3.9 -4.5,8.12 -5.01,12.67l-2.57 22.72 9.49 1.02 -0.44 3.85 -34.68 -3.71z" style="fill: rgb(255, 247, 178); fill-rule: nonzero; fill-opacity: 1;"/>
  <path class="fil2" d="M2296.72 3124.79c0.41,-2.44 1.64,-4.38 3.75,-5.84 2.1,-1.46 4.41,-1.99 6.92,-1.59 2.46,0.39 4.44,1.57 5.88,3.56 1.44,1.99 1.94,4.23 1.53,6.72 -0.41,2.46 -1.63,4.43 -3.67,5.92 -2.04,1.49 -4.3,2.03 -6.81,1.63 -2.53,-0.4 -4.53,-1.6 -6,-3.65 -1.47,-2.04 -2,-4.28 -1.59,-6.75zm-19.16 70.14l0.63 -3.82 7.72 1.21 6.98 -42.07 -8.51 -1.34 0.7 -3.81c4.76,0.62 9.35,1.14 13.8,1.58 4.45,0.44 8.78,0.79 12.97,1.06l-7.86 47.42 8.12 1.27 -0.63 3.82 -33.92 -5.33z" style="fill: rgb(255, 247, 178); fill-rule: nonzero; fill-opacity: 1;"/>
  <path class="fil2" d="M2324.35 3191.35l7.79 -34.31 -7.38 -1.59 0.86 -3.78 7.38 1.59 3.52 -15.51c0.8,0.37 1.72,0.7 2.74,1.01 1.02,0.28 2.55,0.66 4.62,1.1 1.85,0.4 3.59,0.73 5.23,0.97 1.62,0.26 3.22,0.47 4.77,0.65l-3.52 15.51 10.36 2.23 -0.86 3.78 -10.36 -2.23 -7.79 34.31c-0.48,2.12 -0.51,3.64 -0.1,4.54 0.41,0.9 1.42,1.54 3.02,1.88 1.6,0.34 3.06,-0.02 4.39,-1.08 1.33,-1.06 2.33,-2.69 3.05,-4.85l3.5 0.75c-1.23,4.21 -3.78,7.25 -7.64,9.13 -3.89,1.85 -8.41,2.22 -13.61,1.11 -4.88,-1.05 -8.06,-2.57 -9.52,-4.54 -1.46,-1.96 -1.6,-5.52 -0.43,-10.67z" style="fill: rgb(255, 247, 178); fill-rule: nonzero; fill-opacity: 1;"/>
  <path class="fil2" d="M2395.07 3211.52c-3.37,2.32 -6.73,3.78 -10.13,4.33 -3.38,0.58 -7.2,0.32 -11.41,-0.76 -4.3,-1.1 -7.33,-3.01 -9.11,-5.71 -1.76,-2.72 -2.12,-6.04 -1.07,-9.93 1.43,-5.29 5.47,-8.77 12.12,-10.45 6.67,-1.66 14.96,-1.23 24.9,1.31l3.19 -11.82c0.73,-2.73 0.62,-4.69 -0.31,-5.88 -0.96,-1.2 -3.1,-2.24 -6.44,-3.09 -2.16,-0.55 -3.87,-0.72 -5.11,-0.53 -1.25,0.22 -1.97,0.79 -2.22,1.72 -0.07,0.25 0.1,1.14 0.5,2.71 0.41,1.55 0.42,3.02 0.04,4.42 -0.63,2.35 -1.87,3.97 -3.69,4.86 -1.82,0.89 -4.1,0.98 -6.86,0.27 -2.44,-0.62 -4.12,-1.74 -5.1,-3.39 -0.95,-1.64 -1.1,-3.71 -0.44,-6.18 1.06,-3.92 3.95,-6.42 8.66,-7.51 4.71,-1.11 10.86,-0.7 18.41,1.23 3.34,0.85 6.31,1.85 8.9,3.03 2.59,1.15 4.63,2.41 6.14,3.75 1.7,1.48 2.75,3.04 3.14,4.65 0.38,1.63 0.07,4.31 -0.94,8.06l-6.81 25.23c-0.4,1.48 -0.37,2.64 0.09,3.47 0.48,0.86 1.39,1.45 2.78,1.8 0.58,0.15 1.25,0.12 1.99,-0.09 0.76,-0.21 1.26,-0.28 1.5,-0.22 0.34,0.09 0.61,0.29 0.78,0.6 0.19,0.32 0.24,0.64 0.14,1.01 -0.41,1.54 -2.09,2.92 -5.01,4.08 -2.94,1.16 -5.97,1.35 -9.11,0.54 -2.8,-0.72 -5.04,-2.09 -6.7,-4.14 -1.69,-2.03 -2.63,-4.5 -2.83,-7.38zm4.4 -17.83l-1.5 -0.38c-5.17,-1.32 -9.01,-1.52 -11.49,-0.62 -2.46,0.91 -4.17,3.07 -5.1,6.53 -0.95,3.54 -1.08,6.2 -0.38,8 0.68,1.8 2.29,3.03 4.79,3.67 2.5,0.64 4.75,0.35 6.75,-0.88 2,-1.22 3.37,-3.19 4.09,-5.85l2.82 -10.47z" style="fill: rgb(255, 247, 178); fill-rule: nonzero; fill-opacity: 1;"/>
  <path class="fil2" d="M2428.92 3235.18c-1.37,0.69 -2.53,1.5 -3.46,2.45 -0.96,0.95 -1.71,2.03 -2.28,3.24 -1.79,3.79 -1.66,7.35 0.34,10.69 2.03,3.34 5.82,6.24 11.38,8.73 6.83,3.05 12.95,4.21 18.34,3.49 5.39,-0.72 9.05,-3.11 10.96,-7.16 0.85,-1.8 0.81,-3.31 -0.1,-4.54 -0.93,-1.22 -3.37,-2.71 -7.35,-4.49l-27.84 -12.42zm23.6 -27.82c-1.43,3.03 -1.92,5.32 -1.5,6.91 0.42,1.58 1.82,2.89 4.24,3.97 2.43,1.08 4.39,1.27 5.89,0.55 1.51,-0.72 2.97,-2.58 4.39,-5.61l4.32 -9.18c1.42,-3.01 1.91,-5.3 1.46,-6.83 -0.44,-1.54 -1.87,-2.84 -4.3,-3.93 -2.45,-1.09 -4.4,-1.3 -5.87,-0.61 -1.46,0.68 -2.9,2.54 -4.32,5.56l-4.32 9.18zm-26.93 25.01c-1.86,-2.2 -2.96,-4.51 -3.32,-6.9 -0.35,-2.41 0.07,-4.85 1.24,-7.33 1.49,-3.17 3.72,-5.37 6.71,-6.6 3,-1.24 6.37,-1.39 10.17,-0.48l0.28 -0.59c-1.98,-2.09 -3.22,-4.37 -3.66,-6.84 -0.47,-2.46 -0.1,-4.95 1.07,-7.43 2.13,-4.52 6.01,-7.35 11.67,-8.52 5.67,-1.19 11.75,-0.32 18.27,2.58 3.54,1.58 6.54,3.46 8.99,5.64 2.47,2.19 4.4,4.71 5.84,7.53 2.56,-1.72 4.71,-2.82 6.42,-3.26 1.71,-0.47 3.29,-0.38 4.76,0.28 1.77,0.79 2.91,1.94 3.46,3.44 0.55,1.53 0.41,3.15 -0.41,4.91 -0.68,1.45 -1.67,2.45 -2.98,3.03 -1.32,0.58 -2.66,0.54 -4.05,-0.08 -1.49,-0.66 -2.55,-1.71 -3.21,-3.14 -0.66,-1.43 -1.08,-2.19 -1.29,-2.28 -0.2,-0.09 -0.4,-0.13 -0.59,-0.09 -0.21,0.02 -0.48,0.14 -0.82,0.34 0.53,1.82 0.75,3.46 0.68,4.92 -0.09,1.48 -0.47,2.96 -1.2,4.51 -2.21,4.69 -5.97,7.47 -11.25,8.3 -5.29,0.86 -11.53,-0.31 -18.72,-3.52 -1.89,-0.84 -4.11,-1.95 -6.65,-3.32 -2.57,-1.36 -4.25,-2.23 -5.04,-2.58 -2.67,-1.19 -4.89,-1.75 -6.65,-1.69 -1.76,0.07 -2.96,0.76 -3.59,2.09 -0.58,1.23 -0.36,2.32 0.66,3.3 0.99,0.99 4.23,2.69 9.68,5.12l20.5 9.14c5.79,2.58 9.38,5.39 10.84,8.43 1.43,3.05 1.04,6.93 -1.17,11.62 -3.34,7.1 -8.53,11.51 -15.57,13.22 -7.03,1.72 -15.17,0.5 -24.45,-3.64 -7.92,-3.53 -13.48,-7.32 -16.65,-11.33 -3.16,-4.04 -3.78,-8.08 -1.86,-12.17 0.92,-1.96 2.31,-3.4 4.16,-4.35 1.84,-0.96 4.31,-1.46 7.39,-1.54l0.35 -0.74z" style="fill: rgb(255, 247, 178); fill-rule: nonzero; fill-opacity: 1;"/>
  <path class="fil2" d="M2517.82 3242.27l13.81 10.48 6.19 -7.72c1.73,-2.16 2.42,-4.14 2.1,-5.94 -0.32,-1.8 -1.71,-3.61 -4.11,-5.44 -2.32,-1.76 -4.45,-2.56 -6.4,-2.4 -1.94,0.14 -3.75,1.25 -5.39,3.3l-6.19 7.72zm16.55 30.57l1.77 2.62c-5.48,3.34 -10.8,4.87 -15.96,4.59 -5.17,-0.3 -10.38,-2.44 -15.66,-6.45 -7.25,-5.5 -11.56,-11.78 -12.88,-18.81 -1.32,-7.03 0.51,-13.66 5.5,-19.89 4.93,-6.16 11.27,-9.59 19.02,-10.26 7.74,-0.67 15.02,1.58 21.84,6.75 6.26,4.75 9.87,10.19 10.79,16.32 0.94,6.11 -0.94,12.09 -5.61,17.92l-0.39 0.49 -27.41 -20.8 -8.01 10c-3.11,3.89 -4.62,7.03 -4.54,9.41 0.08,2.38 1.66,4.75 4.76,7.11 4.18,3.18 8.51,4.85 12.99,5 4.46,0.17 9.06,-1.17 13.79,-3.99z" style="fill: rgb(255, 247, 178); fill-rule: nonzero; fill-opacity: 1;"/>
 </g></g></g></svg>